<svg width="25" height="24" viewBox="0 0 25 24" fill="none" xmlns="http://www.w3.org/2000/svg">
<rect x="0.5" width="24" height="24" rx="4" fill="#3F7ADC"/>
<path fill-rule="evenodd" clip-rule="evenodd" d="M9.14877 13.2317C9.14651 13.1931 9.16014 13.1552 9.18649 13.1269L14.1682 7.76928C14.7859 7.10499 15.825 7.06701 16.489 7.68446C17.153 8.30191 17.1906 9.34097 16.5729 10.0053L11.892 15.0393C11.6465 15.3034 11.2059 15.189 11.1198 14.8389V14.8389C11.0736 14.6508 10.913 14.5129 10.7201 14.4956L10.555 14.4808C10.2532 14.4537 10.008 14.2257 9.95907 13.9266L9.9312 13.7563C9.89868 13.5574 9.73566 13.4058 9.53499 13.3878L9.27769 13.3648C9.2077 13.3585 9.15286 13.3019 9.14877 13.2317V13.2317ZM8.44697 14.4398C8.48776 14.2324 8.67853 14.0894 8.88901 14.1082V14.1082C9.07671 14.1251 9.22919 14.2669 9.25961 14.4528L9.29105 14.645C9.33997 14.9441 9.58518 15.1721 9.88703 15.1992L10.0498 15.2138C10.2744 15.2339 10.4614 15.3945 10.5153 15.6135V15.6135C10.5836 15.8915 10.418 16.1732 10.1419 16.2487L8.30422 16.7512C8.15252 16.7927 8.01015 16.6603 8.04051 16.506L8.44697 14.4398ZM15.0001 9.33546C14.8895 9.23256 14.7203 9.23458 14.6223 9.33998L11.7475 12.4317C11.6495 12.5371 11.6597 12.706 11.7704 12.8089C11.8811 12.9118 12.0502 12.9098 12.1482 12.8044L15.0231 9.71264C15.1211 9.60724 15.1108 9.43837 15.0001 9.33546Z" fill="white"/>
</svg>
