<svg width="25" height="24" viewBox="0 0 25 24" fill="none" xmlns="http://www.w3.org/2000/svg">
<rect x="0.5" width="24" height="24" rx="4" fill="#4650BF"/>
<path fill-rule="evenodd" clip-rule="evenodd" d="M16.93 13.6591H8.42112V12.9192H16.93V13.6591Z" fill="white"/>
<path fill-rule="evenodd" clip-rule="evenodd" d="M10.9492 15.9403L10.9492 8.69936H11.6891V15.9403H10.9492Z" fill="white"/>
<path fill-rule="evenodd" clip-rule="evenodd" d="M13.909 15.9403L13.909 8.69936H14.6489V15.9403H13.909Z" fill="white"/>
<path fill-rule="evenodd" clip-rule="evenodd" d="M8.72926 10.8363V15.8788H16.8682V10.8363H8.72926ZM8.35931 7C7.88257 7 7.49609 7.38648 7.49609 7.86322V16.2488C7.49609 16.7255 7.88257 17.112 8.35931 17.112H17.2381C17.7149 17.112 18.1014 16.7255 18.1014 16.2488V7.86322C18.1014 7.38648 17.7149 7 17.2381 7H8.35931Z" fill="white"/>
</svg>
