<svg width="64" height="65" viewBox="0 0 64 65" fill="none" xmlns="http://www.w3.org/2000/svg">
<path d="M38.1152 61.1463C36.7046 62.5569 34.2927 61.5578 34.2927 59.563L34.2927 38.3628C34.2927 37.1262 35.2952 36.1237 36.5318 36.1237L57.732 36.1237C59.7269 36.1237 60.7259 38.5356 59.3153 39.9461L38.1152 61.1463Z" fill="#79CF81"/>
<path d="M64.0002 44.3621L64.0002 59.8517C64.0002 61.8041 61.6757 62.8213 60.2416 61.4964L52.1902 54.0582C51.2563 53.1955 51.2273 51.7292 52.1263 50.8302L60.1777 42.7788C61.5883 41.3682 64.0002 42.3672 64.0002 44.3621Z" fill="#9AD2FA"/>
<path d="M4.03652 59.0658C2.57666 60.4611 3.56423 62.9237 5.58362 62.9237L27.9416 62.9237C29.1782 62.9237 30.1807 61.9212 30.1807 60.6845L30.1807 39.316C30.1807 37.3455 27.819 36.3358 26.3945 37.6973L4.03652 59.0658Z" fill="#30BEFA"/>
<path d="M21.6333 33.213L5.27862 33.213C3.30202 33.213 2.29491 35.5872 3.66865 37.0084L11.5223 45.1332C12.3783 46.0188 13.7889 46.0468 14.6793 45.1958L23.1804 37.0709C24.6403 35.6756 23.6527 33.213 21.6333 33.213Z" fill="#3F7ADC"/>
<path d="M26.3556 3.82248C27.7662 2.41189 30.1781 3.41093 30.1781 5.4058L30.1781 26.6059C30.1781 27.8426 29.1756 28.8451 27.9389 28.8451L6.73878 28.8451C4.74391 28.8451 3.74488 26.4332 5.15547 25.0226L26.3556 3.82248Z" fill="#79CF81"/>
<path d="M0.465443 20.6066L0.465446 5.11704C0.465447 3.16461 2.78993 2.14744 4.22404 3.47233L12.2755 10.9105C13.2093 11.7733 13.2383 13.2395 12.3393 14.1385L4.28791 22.19C2.87732 23.6005 0.465442 22.6015 0.465443 20.6066Z" fill="#9AD2FA"/>
<path d="M59.3111 5.87047C60.7217 4.45988 59.7227 2.048 57.7278 2.048L36.5277 2.048C35.291 2.048 34.2885 3.0505 34.2885 4.28715L34.2885 25.4873C34.2885 27.4822 36.7004 28.4812 38.111 27.0706L59.3111 5.87047Z" fill="#30BEFA"/>
<path d="M42.527 31.7555L58.0166 31.7555C59.969 31.7555 60.9862 29.431 59.6613 27.9969L52.2231 19.9455C51.3603 19.0116 49.8941 18.9826 48.9951 19.8816L40.9436 27.933C39.5331 29.3436 40.5321 31.7555 42.527 31.7555Z" fill="#3F7ADC"/>
</svg>
