<svg width="64" height="64" viewBox="0 0 64 64" fill="none" xmlns="http://www.w3.org/2000/svg">
<path d="M36.6153 60.6746C35.3881 61.9018 33.2899 61.0326 33.2899 59.2972L33.2899 36.5513C33.2899 35.4755 34.162 34.6034 35.2379 34.6034L57.9837 34.6034C59.7192 34.6034 60.5883 36.7016 59.3612 37.9288L36.6153 60.6746Z" fill="#72CF7B"/>
<path d="M63.5638 42.193L63.5638 59.5484C63.5638 61.2469 61.5416 62.1318 60.294 60.9792L51.2728 52.6451C50.4604 51.8945 50.4351 50.6189 51.2172 49.8368L60.2385 40.8156C61.4656 39.5884 63.5638 40.4575 63.5638 42.193Z" fill="#64BBFA"/>
<path d="M3.5116 58.5595C2.24159 59.7733 3.10073 61.9157 4.85751 61.9157L28.8099 61.9157C29.8857 61.9157 30.7578 61.0435 30.7578 59.9677L30.7578 37.0754C30.7578 35.3611 28.7033 34.4827 27.464 35.6671L3.5116 58.5595Z" fill="#30BEFA"/>
<path d="M22.8798 31.6373L4.59217 31.6373C2.87262 31.6373 1.99647 33.7028 3.19157 34.9391L11.9734 44.0243C12.7181 44.7947 13.9453 44.819 14.7199 44.0787L24.2257 34.9935C25.4958 33.7797 24.6366 31.6373 22.8798 31.6373Z" fill="#3E79DC"/>
<path d="M27.4306 3.32539C28.6578 2.09824 30.756 2.96736 30.756 4.70281L30.756 27.4487C30.756 28.5245 29.8838 29.3966 28.808 29.3966L6.06217 29.3966C4.32672 29.3966 3.4576 27.2984 4.68475 26.0712L27.4306 3.32539Z" fill="#72CF7B"/>
<path d="M0.474239 21.807L0.474243 4.4516C0.474243 2.75307 2.49645 1.86818 3.74406 3.02077L12.7653 11.3549C13.5777 12.1055 13.603 13.3811 12.8209 14.1632L3.79962 23.1844C2.57247 24.4116 0.474239 23.5425 0.474239 21.807Z" fill="#64BBFA"/>
<path d="M59.3572 5.41265C60.5844 4.1855 59.7153 2.08727 57.9798 2.08727L35.234 2.08727C34.1581 2.08727 33.286 2.95941 33.286 4.03524L33.286 26.7811C33.286 28.5165 35.3842 29.3857 36.6114 28.1585L59.3572 5.41265Z" fill="#32BFFA"/>
<path d="M40.8756 32.3627L58.231 32.3627C59.9295 32.3627 60.8144 30.3405 59.6618 29.0929L51.3277 20.0716C50.5771 19.2592 49.3015 19.2339 48.5194 20.016L39.4982 29.0373C38.271 30.2644 39.1402 32.3627 40.8756 32.3627Z" fill="#3F7ADC"/>
</svg>
