<svg width="24" height="24" viewBox="0 0 24 24" fill="none" xmlns="http://www.w3.org/2000/svg">
<path d="M20 0H4C1.79086 0 0 1.79086 0 4V20C0 22.2091 1.79086 24 4 24H20C22.2091 24 24 22.2091 24 20V4C24 1.79086 22.2091 0 20 0Z" fill="#79CF81"/>
<path d="M14.5282 7H10.9883C10.9359 7 10.888 7.02983 10.8649 7.0769L8.09705 12.721C8.05228 12.8123 8.11874 12.9189 8.22042 12.9189H10.6937C10.7925 12.9189 10.859 13.02 10.8199 13.1107L8.16391 19.27C8.13316 19.3413 8.22578 19.4009 8.27791 19.3434L15.5345 11.3329C15.6145 11.2446 15.5519 11.1033 15.4327 11.1033H12.1524C12.0409 11.1033 11.9758 10.9774 12.0403 10.8864L14.6403 7.21684C14.7048 7.12584 14.6397 7 14.5282 7Z" fill="white"/>
</svg>
