<svg width="79" height="66" viewBox="0 0 79 66" fill="none" xmlns="http://www.w3.org/2000/svg">
<path d="M29.9834 61.5413C27.683 61.5413 28.0741 60.6728 27.2807 58.4824L20.5167 36.2222L72.5834 5.33301" fill="#D9D9D9"/>
<path d="M29.9833 61.5413C31.7583 61.5413 32.5422 60.7295 33.5333 59.7663L42.9999 50.5611L31.1915 43.4404" fill="#C3C3C3"/>
<path d="M31.1903 43.4431L59.8033 64.5828C63.0687 66.3844 65.4247 65.4514 66.2382 61.5517L77.8852 6.6669C79.0774 1.88623 76.0629 -0.282816 72.9389 1.13541L4.54811 27.5066C-0.120136 29.3792 -0.0923273 31.9837 3.6973 33.144L21.2479 38.6222L61.8794 12.9883C63.7976 11.825 65.5584 12.4498 64.1136 13.7326" fill="white"/>
</svg>
