<svg width="284" height="285" viewBox="0 0 284 285" fill="none" xmlns="http://www.w3.org/2000/svg">
<rect x="0.103516" y="0.545654" width="283.638" height="283.638" rx="31.3275" fill="white"/>
<rect x="0.103516" y="0.545654" width="283.638" height="283.638" rx="31.3275" fill="url(#paint0_linear)"/>
<rect x="0.103516" y="0.545654" width="283.638" height="283.638" rx="31.3275" fill="url(#paint1_linear)"/>
<rect x="27.0776" y="27.5197" width="229.14" height="229.14" rx="8.81085" stroke="#0F2626" stroke-width="5.8739"/>
<circle cx="214.049" cy="139.933" r="25.9326" fill="#0F2626"/>
<path d="M232.57 139.933C232.57 149.698 224.653 157.615 214.888 157.615C205.123 157.615 197.207 149.698 197.207 139.933C197.207 130.168 205.123 122.252 214.888 122.252C224.653 122.252 232.57 130.168 232.57 139.933Z" fill="url(#paint2_linear)"/>
<path d="M215.235 115.924L206.822 125.539H223.648L215.235 115.924Z" fill="url(#paint3_linear)"/>
<defs>
<linearGradient id="paint0_linear" x1="141.923" y1="0.545654" x2="141.923" y2="284.184" gradientUnits="userSpaceOnUse">
<stop stop-color="white"/>
<stop offset="1" stop-color="white" stop-opacity="0"/>
</linearGradient>
<linearGradient id="paint1_linear" x1="141.922" y1="63.2324" x2="141.922" y2="284.232" gradientUnits="userSpaceOnUse">
<stop stop-color="white"/>
<stop offset="1" stop-color="#9FE0B5"/>
</linearGradient>
<linearGradient id="paint2_linear" x1="214.888" y1="115.924" x2="214.888" y2="157.615" gradientUnits="userSpaceOnUse">
<stop stop-color="white"/>
<stop offset="1" stop-color="#9FE0B5"/>
</linearGradient>
<linearGradient id="paint3_linear" x1="214.888" y1="115.924" x2="214.888" y2="157.615" gradientUnits="userSpaceOnUse">
<stop stop-color="white"/>
<stop offset="1" stop-color="#9FE0B5"/>
</linearGradient>
</defs>
</svg>
