<svg width="43" height="44" viewBox="0 0 43 44" fill="none" xmlns="http://www.w3.org/2000/svg">
<path d="M0.179594 21.3738C0.1783 25.1406 1.16255 28.8182 3.03349 32.0594L0 43.1345L11.3346 40.1626C14.4576 41.8657 17.9735 42.7632 21.5518 42.7647H21.561C33.3442 42.7647 42.9371 33.1749 42.9421 21.3903C42.944 15.6787 40.7217 10.3084 36.6853 6.26852C32.6482 2.22859 27.2803 0.00246525 21.561 0C9.77522 0 0.184165 9.58797 0.179234 21.3731L0.179594 21.3738ZM6.92909 31.501L6.50598 30.8289C4.72681 28.0003 3.7878 24.7311 3.78909 21.3747C3.79297 11.5797 11.7648 3.61011 21.5672 3.61011C26.3142 3.61196 30.7756 5.46256 34.1314 8.82017C37.4868 12.178 39.3332 16.6418 39.3319 21.3886C39.3275 31.1843 31.3556 39.1544 21.5605 39.1544H21.5536C18.3642 39.1526 15.2364 38.2965 12.5086 36.6778L11.8593 36.293L5.13291 38.0565L6.92909 31.501ZM21.561 42.7647H21.5612H21.561C21.5605 42.7647 21.5607 42.7647 21.561 42.7647Z" fill="url(#paint0_linear)"/>
<path fill-rule="evenodd" clip-rule="evenodd" d="M16.2173 12.4375C15.817 11.5478 15.3959 11.53 15.0152 11.5143C14.7036 11.5011 14.3473 11.502 13.9913 11.502C13.635 11.502 13.0562 11.6357 12.5668 12.1703C12.0769 12.7049 10.6968 13.9973 10.6968 16.6257C10.6968 19.2543 12.6114 21.7942 12.8782 22.151C13.1454 22.5071 16.5741 28.0736 22.0039 30.2148C26.5169 31.9944 27.4353 31.6405 28.4148 31.5513C29.3943 31.4624 31.5757 30.2594 32.0207 29.0118C32.466 27.7645 32.466 26.6952 32.3325 26.4719C32.199 26.2493 31.8426 26.1156 31.3084 25.8486C30.774 25.5814 28.1475 24.2888 27.6579 24.1105C27.1681 23.9325 26.8119 23.8435 26.4556 24.3784C26.0994 24.9126 25.0763 26.1156 24.7645 26.472C24.4529 26.829 24.1411 26.8735 23.6069 26.6063C23.0725 26.3382 21.3518 25.7747 19.3107 23.9549C17.7224 22.5388 16.6503 20.7901 16.3385 20.2552C16.0269 19.721 16.3052 19.4316 16.5731 19.1653C16.8131 18.9259 17.1075 18.5415 17.3747 18.2297C17.6413 17.9177 17.7302 17.6951 17.9083 17.3387C18.0866 16.9821 17.9974 16.6701 17.8639 16.4029C17.7302 16.1357 16.692 13.4938 16.217 12.4374" fill="white"/>
<defs>
<linearGradient id="paint0_linear" x1="21.4713" y1="43.1358" x2="21.4713" y2="0.00129579" gradientUnits="userSpaceOnUse">
<stop stop-color="#F9F9F9"/>
<stop offset="1" stop-color="white"/>
</linearGradient>
</defs>
</svg>
