<svg width="1350" height="1965" viewBox="0 0 1350 1965" fill="none" xmlns="http://www.w3.org/2000/svg">
<path d="M1 275C1 164.543 90.5431 75 201 75H1150C1260.46 75 1350 164.543 1350 275V1888H1V275Z" fill="url(#paint0_linear)"/>
<path d="M101 346C101 290.772 145.772 246 201 246H1170C1225.23 246 1270 290.772 1270 346V1888H101V346Z" fill="#060928"/>
<mask id="mask0" mask-type="alpha" maskUnits="userSpaceOnUse" x="101" y="256" width="1169" height="1632">
<path d="M101 336C101 291.817 136.817 256 181 256H1190C1234.18 256 1270 291.817 1270 336V1888H101V336Z" fill="#060928"/>
</mask>
<g mask="url(#mask0)">
<rect y="1301" width="1350" height="175" fill="#DFDFDF"/>
<path d="M1054.83 1413.84C1051.97 1413.84 1049.3 1413.23 1046.82 1412.02C1044.38 1410.75 1042.39 1408.81 1040.85 1406.19C1039.35 1403.56 1038.6 1400.14 1038.6 1395.93C1038.6 1391.34 1039.7 1387.31 1041.9 1383.84C1044.1 1380.33 1047.19 1377.59 1051.18 1375.62C1055.2 1373.66 1059.96 1372.67 1065.44 1372.67C1070.68 1372.67 1075.04 1373.59 1078.5 1375.41C1081.97 1377.24 1084.55 1379.72 1086.23 1382.86C1087.97 1385.95 1088.83 1389.44 1088.83 1393.33C1088.83 1396.47 1088.36 1399.28 1087.43 1401.76C1086.49 1404.19 1085.2 1406.4 1083.56 1408.36C1081.92 1410.28 1080.03 1412.11 1077.87 1413.84L1071.13 1408.5C1072.53 1407.1 1073.77 1405.69 1074.85 1404.29C1075.93 1402.84 1076.77 1401.24 1077.38 1399.51C1077.99 1397.78 1078.29 1395.74 1078.29 1393.4C1078.29 1389.46 1077.12 1386.28 1074.78 1383.84C1072.44 1381.41 1068.97 1380.19 1064.38 1380.19C1060.64 1380.19 1057.43 1381.13 1054.76 1383C1052.14 1384.83 1050.26 1387.22 1049.14 1390.17C1050.17 1389.7 1051.27 1389.32 1052.44 1389.04C1053.66 1388.76 1054.95 1388.62 1056.3 1388.62C1060.38 1388.62 1063.49 1389.72 1065.65 1391.92C1067.85 1394.12 1068.95 1397.08 1068.95 1400.78C1068.95 1404.85 1067.71 1408.06 1065.23 1410.4C1062.74 1412.7 1059.28 1413.84 1054.83 1413.84ZM1053.92 1395.65C1051.95 1395.65 1050 1396.3 1048.08 1397.61C1048.27 1401.08 1048.95 1403.49 1050.12 1404.85C1051.29 1406.16 1052.72 1406.82 1054.41 1406.82C1057.45 1406.82 1058.97 1404.99 1058.97 1401.34C1058.97 1399.56 1058.55 1398.18 1057.71 1397.19C1056.91 1396.16 1055.65 1395.65 1053.92 1395.65ZM1110.26 1413.84C1107.4 1413.84 1104.73 1413.23 1102.25 1412.02C1099.82 1410.75 1097.83 1408.81 1096.28 1406.19C1094.78 1403.56 1094.03 1400.14 1094.03 1395.93C1094.03 1391.34 1095.13 1387.31 1097.33 1383.84C1099.53 1380.33 1102.63 1377.59 1106.61 1375.62C1110.64 1373.66 1115.39 1372.67 1120.87 1372.67C1126.11 1372.67 1130.47 1373.59 1133.94 1375.41C1137.4 1377.24 1139.98 1379.72 1141.66 1382.86C1143.4 1385.95 1144.26 1389.44 1144.26 1393.33C1144.26 1396.47 1143.8 1399.28 1142.86 1401.76C1141.92 1404.19 1140.63 1406.4 1139 1408.36C1137.36 1410.28 1135.46 1412.11 1133.3 1413.84L1126.56 1408.5C1127.96 1407.1 1129.21 1405.69 1130.28 1404.29C1131.36 1402.84 1132.2 1401.24 1132.81 1399.51C1133.42 1397.78 1133.73 1395.74 1133.73 1393.4C1133.73 1389.46 1132.55 1386.28 1130.21 1383.84C1127.87 1381.41 1124.41 1380.19 1119.82 1380.19C1116.07 1380.19 1112.86 1381.13 1110.19 1383C1107.57 1384.83 1105.69 1387.22 1104.57 1390.17C1105.6 1389.7 1106.7 1389.32 1107.87 1389.04C1109.09 1388.76 1110.38 1388.62 1111.74 1388.62C1115.81 1388.62 1118.93 1389.72 1121.08 1391.92C1123.28 1394.12 1124.38 1397.08 1124.38 1400.78C1124.38 1404.85 1123.14 1408.06 1120.66 1410.4C1118.18 1412.7 1114.71 1413.84 1110.26 1413.84ZM1109.35 1395.65C1107.38 1395.65 1105.44 1396.3 1103.52 1397.61C1103.7 1401.08 1104.38 1403.49 1105.55 1404.85C1106.72 1406.16 1108.15 1406.82 1109.84 1406.82C1112.88 1406.82 1114.41 1404.99 1114.41 1401.34C1114.41 1399.56 1113.98 1398.18 1113.14 1397.19C1112.34 1396.16 1111.08 1395.65 1109.35 1395.65ZM1174.69 1372.67C1179.05 1372.67 1182.77 1373.14 1185.86 1374.08C1189 1375.02 1191.6 1376.3 1193.66 1377.94C1195.86 1379.77 1197.48 1382.02 1198.51 1384.69C1199.54 1387.31 1200.06 1390.78 1200.06 1395.08V1413H1150.81V1394.94C1150.81 1390.92 1151.3 1387.54 1152.28 1384.83C1153.31 1382.06 1154.91 1379.79 1157.06 1378.01C1159.07 1376.33 1161.46 1375.02 1164.23 1374.08C1167.04 1373.14 1170.53 1372.67 1174.69 1372.67ZM1183.97 1387.01C1183.97 1390.28 1183.03 1393.47 1181.16 1396.56C1179.28 1399.6 1176.82 1402.67 1173.78 1405.76C1174.58 1405.72 1175.33 1405.69 1176.03 1405.69C1176.73 1405.65 1177.29 1405.62 1177.71 1405.62H1189.73V1395.16C1189.73 1390.85 1189.12 1387.59 1187.9 1385.39C1186.73 1383.14 1184.72 1381.34 1181.86 1379.98C1182.38 1380.73 1182.84 1381.69 1183.26 1382.86C1183.73 1383.98 1183.97 1385.37 1183.97 1387.01ZM1169.49 1380.12C1168.09 1380.12 1166.83 1380.49 1165.7 1381.24C1164.62 1381.99 1163.71 1383.02 1162.96 1384.34C1162.35 1385.41 1161.88 1386.72 1161.56 1388.27C1161.27 1389.77 1161.13 1391.62 1161.13 1393.82V1405.9C1164.74 1402.72 1167.74 1399.39 1170.13 1395.93C1172.56 1392.46 1173.78 1388.97 1173.78 1385.46C1173.78 1383.96 1173.48 1382.7 1172.87 1381.67C1172.31 1380.64 1171.18 1380.12 1169.49 1380.12ZM1265.5 1373.52V1413H1208.1V1391.71C1208.1 1387.97 1208.54 1385.04 1209.43 1382.93C1210.32 1380.78 1211.49 1378.97 1212.95 1377.52C1214.49 1375.98 1216.46 1374.78 1218.85 1373.94C1221.28 1373.09 1224.07 1372.67 1227.21 1372.67C1230.35 1372.67 1233.09 1373.09 1235.43 1373.94C1237.77 1374.78 1239.71 1375.98 1241.26 1377.52C1243.04 1379.3 1244.3 1381.31 1245.05 1383.56C1245.8 1385.76 1246.18 1388.53 1246.18 1391.85V1398.04H1218.43V1405.62H1255.17V1373.52H1265.5ZM1227.14 1380.05C1224 1380.05 1221.75 1381.01 1220.39 1382.93C1219.08 1384.85 1218.43 1387.31 1218.43 1390.31V1390.66H1235.85V1390.38C1235.85 1387.19 1235.15 1384.69 1233.74 1382.86C1232.34 1380.99 1230.14 1380.05 1227.14 1380.05ZM1307.68 1393.12C1307.68 1395.88 1307.38 1398.5 1306.77 1400.99C1306.21 1403.47 1305.23 1405.69 1303.82 1407.66C1302.42 1409.58 1300.52 1411.1 1298.13 1412.23C1295.74 1413.3 1292.72 1413.84 1289.07 1413.84C1285.98 1413.84 1283.38 1413.42 1281.27 1412.58C1279.16 1411.74 1277.43 1410.66 1276.07 1409.35C1274.76 1407.99 1273.73 1406.51 1272.98 1404.92C1272.28 1403.28 1271.74 1401.69 1271.36 1400.14L1281.9 1398.39C1282.23 1399.56 1282.63 1400.78 1283.1 1402.04C1283.61 1403.3 1284.34 1404.38 1285.27 1405.27C1286.26 1406.11 1287.57 1406.54 1289.21 1406.54C1292.02 1406.54 1294.01 1405.32 1295.18 1402.88C1296.4 1400.4 1297.01 1397.19 1297.01 1393.26C1297.01 1389.32 1296.4 1386.14 1295.18 1383.7C1294.01 1381.22 1292.09 1379.98 1289.42 1379.98C1287.92 1379.98 1286.68 1380.4 1285.69 1381.24C1284.71 1382.04 1283.94 1383.05 1283.38 1384.27C1282.81 1385.48 1282.39 1386.75 1282.11 1388.06L1271.57 1386.23C1272.09 1384.64 1272.77 1383.05 1273.61 1381.46C1274.45 1379.86 1275.55 1378.41 1276.91 1377.1C1278.32 1375.74 1280.07 1374.66 1282.18 1373.87C1284.29 1373.07 1286.84 1372.67 1289.84 1372.67C1293.26 1372.67 1296.12 1373.24 1298.41 1374.36C1300.71 1375.44 1302.53 1376.94 1303.89 1378.86C1305.25 1380.73 1306.21 1382.91 1306.77 1385.39C1307.38 1387.82 1307.68 1390.4 1307.68 1393.12ZM1329.26 1413.84C1326.45 1413.84 1323.81 1413.23 1321.32 1412.02C1318.89 1410.8 1316.9 1408.88 1315.35 1406.26C1313.85 1403.63 1313.1 1400.21 1313.1 1396C1313.1 1390.94 1314.23 1386.68 1316.48 1383.21C1318.73 1379.75 1321.77 1377.12 1325.61 1375.34C1329.45 1373.56 1333.76 1372.67 1338.54 1372.67C1342.33 1372.67 1345.54 1373.16 1348.16 1374.15C1350.83 1375.09 1353.22 1376.49 1355.33 1378.36C1357.25 1376.68 1359.47 1375.32 1362 1374.29C1364.58 1373.21 1367.93 1372.67 1372.05 1372.67C1373.83 1372.67 1375.54 1372.79 1377.18 1373.02C1378.86 1373.26 1380.57 1373.7 1382.31 1374.36C1383.76 1373.84 1385.33 1373.45 1387.01 1373.16C1388.7 1372.84 1390.55 1372.67 1392.56 1372.67C1396.83 1372.67 1400.39 1373.28 1403.24 1374.5C1406.1 1375.67 1408.35 1377.22 1409.99 1379.14C1411.67 1381.06 1412.87 1383.14 1413.57 1385.39C1414.32 1387.64 1414.69 1389.82 1414.69 1391.92C1414.69 1394.92 1414.3 1397.5 1413.5 1399.65C1412.7 1401.76 1411.63 1403.75 1410.27 1405.62H1424.32V1373.52H1434.65V1413H1368.75V1405.62H1399.38C1400.78 1403.8 1401.93 1401.88 1402.82 1399.86C1403.76 1397.85 1404.23 1395.39 1404.23 1392.49C1404.23 1388.74 1403.08 1385.69 1400.78 1383.35C1398.54 1381.01 1395.3 1379.84 1391.09 1379.84C1390.81 1379.84 1390.48 1379.86 1390.11 1379.91C1391.89 1381.36 1393.27 1383.05 1394.25 1384.97C1395.23 1386.89 1395.73 1389.07 1395.73 1391.5C1395.73 1395.34 1394.44 1398.29 1391.86 1400.35C1389.33 1402.37 1385.94 1403.37 1381.67 1403.37C1377.18 1403.37 1373.71 1402.32 1371.28 1400.21C1368.84 1398.06 1367.62 1395.16 1367.62 1391.5C1367.62 1389.3 1368.09 1387.24 1369.03 1385.32C1369.97 1383.4 1371.53 1381.57 1373.74 1379.84C1373.41 1379.84 1373.03 1379.84 1372.61 1379.84C1370.46 1379.84 1368.68 1380.12 1367.27 1380.68C1365.87 1381.2 1364.77 1381.76 1363.97 1382.37C1362.38 1383.63 1361.3 1385.23 1360.74 1387.15C1360.18 1389.07 1359.9 1391.83 1359.9 1395.44V1413H1349.57V1394.1C1349.57 1390.49 1349.29 1387.9 1348.72 1386.3C1348.16 1384.66 1347.39 1383.42 1346.41 1382.58C1345.52 1381.78 1344.46 1381.17 1343.24 1380.75C1342.03 1380.33 1340.39 1380.12 1338.33 1380.12C1334.77 1380.12 1331.63 1380.99 1328.91 1382.72C1326.24 1384.41 1324.42 1386.94 1323.43 1390.31C1324.51 1389.79 1325.68 1389.39 1326.95 1389.11C1328.21 1388.79 1329.54 1388.62 1330.95 1388.62C1334.98 1388.62 1338.07 1389.72 1340.22 1391.92C1342.38 1394.12 1343.46 1397.08 1343.46 1400.78C1343.46 1404.85 1342.21 1408.06 1339.73 1410.4C1337.25 1412.7 1333.76 1413.84 1329.26 1413.84ZM1377.18 1391.01C1377.18 1393.16 1377.65 1394.62 1378.58 1395.37C1379.52 1396.07 1380.55 1396.42 1381.67 1396.42C1382.85 1396.42 1383.88 1396.04 1384.77 1395.3C1385.7 1394.55 1386.17 1393.12 1386.17 1391.01C1386.17 1389.37 1385.77 1387.73 1384.98 1386.09C1384.23 1384.45 1383.2 1383.05 1381.89 1381.88C1380.25 1383.09 1379.05 1384.55 1378.3 1386.23C1377.55 1387.87 1377.18 1389.46 1377.18 1391.01ZM1328.42 1395.65C1326.45 1395.65 1324.51 1396.3 1322.59 1397.61C1322.73 1401.08 1323.39 1403.49 1324.56 1404.85C1325.77 1406.16 1327.23 1406.82 1328.91 1406.82C1331.96 1406.82 1333.48 1404.97 1333.48 1401.27C1333.48 1399.49 1333.06 1398.11 1332.21 1397.12C1331.42 1396.14 1330.15 1395.65 1328.42 1395.65ZM1437.6 1353.21C1441.77 1353.21 1445.07 1354.03 1447.51 1355.67C1449.1 1356.7 1450.34 1357.94 1451.23 1359.39C1452.17 1360.8 1452.85 1362.65 1453.27 1364.95C1453.69 1367.19 1453.9 1370.17 1453.9 1373.87V1413H1443.51V1375.48C1443.51 1371.97 1443.39 1369.21 1443.15 1367.19C1442.92 1365.18 1442.45 1363.68 1441.75 1362.7C1441.28 1362.04 1440.72 1361.53 1440.06 1361.15C1439.41 1360.78 1438.54 1360.59 1437.46 1360.59C1436.25 1360.59 1435.14 1360.99 1434.16 1361.78C1433.18 1362.58 1432.69 1363.82 1432.69 1365.51C1432.69 1366.4 1432.8 1367.24 1433.04 1368.04L1422.92 1369.23C1422.55 1368.01 1422.36 1366.75 1422.36 1365.44C1422.36 1362.72 1423.04 1360.47 1424.4 1358.69C1425.71 1356.87 1427.51 1355.51 1429.81 1354.62C1432.1 1353.68 1434.7 1353.21 1437.6 1353.21Z" fill="#06092D"/>
<path d="M-92.1787 1413.84C-96.8624 1413.84 -101.125 1413.12 -104.965 1411.67C-108.806 1410.21 -111.874 1407.96 -114.169 1404.92C-116.464 1401.83 -117.611 1397.85 -117.611 1392.98C-117.611 1389.46 -116.932 1386.42 -115.574 1383.84C-114.216 1381.27 -112.366 1379.16 -110.024 1377.52C-107.635 1375.88 -104.918 1374.66 -101.874 1373.87C-98.7827 1373.07 -95.5041 1372.67 -92.0382 1372.67C-88.2912 1372.67 -85.2936 1373.14 -83.0454 1374.08C-80.7973 1375.02 -79.1814 1376.28 -78.1978 1377.87C-77.1674 1379.42 -76.6522 1381.15 -76.6522 1383.07C-76.6522 1386.21 -77.7528 1388.62 -79.9542 1390.31C-82.1087 1391.95 -84.9423 1392.77 -88.4551 1392.77C-91.4059 1392.77 -93.7477 1392.32 -95.4807 1391.43C-97.1669 1390.54 -98.3846 1389.37 -99.134 1387.92C-99.8366 1386.47 -100.188 1384.92 -100.188 1383.28C-100.188 1382.39 -100.071 1381.53 -99.8366 1380.68C-102.272 1381.57 -104.146 1383.12 -105.457 1385.32C-106.768 1387.47 -107.424 1390.05 -107.424 1393.05C-107.424 1396.04 -106.815 1398.67 -105.598 1400.92C-104.38 1403.12 -102.6 1404.71 -100.258 1405.69C-100.492 1404.8 -100.609 1403.89 -100.609 1402.95C-100.609 1401.36 -100.258 1399.86 -99.5556 1398.46C-98.8062 1397.01 -97.565 1395.83 -95.832 1394.94C-94.099 1394.05 -91.7103 1393.61 -88.6659 1393.61C-85.2468 1393.61 -82.46 1394.45 -80.3055 1396.14C-78.151 1397.78 -77.0737 1400.24 -77.0737 1403.52C-77.0737 1406.37 -78.2915 1408.81 -80.727 1410.82C-83.1625 1412.84 -86.9798 1413.84 -92.1787 1413.84ZM-92.3192 1382.65C-92.3192 1383.77 -92.0616 1384.71 -91.5464 1385.46C-91.0312 1386.16 -90.1413 1386.51 -88.8767 1386.51C-87.6589 1386.51 -86.7924 1386.21 -86.2772 1385.6C-85.7152 1384.99 -85.4341 1384.24 -85.4341 1383.35C-85.4341 1382.04 -85.9259 1381.1 -86.9095 1380.54C-87.8463 1379.93 -89.064 1379.63 -90.5628 1379.63C-90.7502 1379.63 -90.9375 1379.63 -91.1249 1379.63C-91.3122 1379.63 -91.4996 1379.63 -91.6869 1379.63C-92.1084 1380.57 -92.3192 1381.57 -92.3192 1382.65ZM-92.7407 1403.87C-92.7407 1404.99 -92.5066 1406 -92.0382 1406.89C-91.8977 1406.89 -91.7572 1406.89 -91.6167 1406.89C-91.4293 1406.89 -91.2654 1406.89 -91.1249 1406.89C-89.4856 1406.89 -88.1975 1406.58 -87.2608 1405.97C-86.324 1405.37 -85.8557 1404.41 -85.8557 1403.09C-85.8557 1402.16 -86.1133 1401.38 -86.6285 1400.78C-87.0969 1400.17 -87.8697 1399.86 -88.9469 1399.86C-90.2584 1399.86 -91.2185 1400.26 -91.8274 1401.06C-92.4363 1401.81 -92.7407 1402.74 -92.7407 1403.87ZM-57.8027 1413.84C-62.3928 1413.84 -65.9056 1412.77 -68.3411 1410.61C-70.7767 1408.46 -71.9944 1405.48 -71.9944 1401.69C-71.9944 1399.35 -71.4558 1397.33 -70.3785 1395.65C-69.2544 1393.96 -67.8025 1392.6 -66.0227 1391.57C-64.4302 1390.64 -62.6504 1389.96 -60.6832 1389.53C-58.6692 1389.07 -55.8356 1388.79 -52.1823 1388.69C-51.4329 1383.68 -49.4423 1379.77 -46.2105 1376.96C-42.9319 1374.1 -38.6229 1372.67 -33.2835 1372.67C-29.396 1372.67 -26.1408 1373.35 -23.5179 1374.71C-20.895 1376.07 -18.8576 1377.94 -17.4057 1380.33C-15.9069 1382.72 -14.9233 1385.51 -14.4549 1388.69C-11.0358 1388.79 -8.20214 1389.09 -5.95395 1389.6C-3.70577 1390.12 -1.7386 1390.94 -0.0524631 1392.06C1.39949 1393.05 2.57042 1394.31 3.46032 1395.86C4.35023 1397.4 4.79519 1399.35 4.79519 1401.69C4.79519 1405.67 3.43691 1408.69 0.720345 1410.75C-1.99621 1412.81 -5.43875 1413.84 -9.60726 1413.84C-11.7149 1413.84 -13.8226 1413.56 -15.9303 1413L-14.1739 1405.9C-13.6587 1406.04 -13.0732 1406.19 -12.4175 1406.33C-11.7618 1406.42 -11.0826 1406.47 -10.3801 1406.47C-6.96096 1406.47 -5.2514 1404.87 -5.2514 1401.69C-5.2514 1400.61 -5.48558 1399.75 -5.95395 1399.09C-6.37549 1398.39 -6.93754 1397.82 -7.64009 1397.4C-8.43633 1396.89 -9.34965 1396.54 -10.3801 1396.35C-11.4105 1396.16 -12.7219 1396.04 -14.3144 1396C-14.7828 1401.81 -16.6563 1406.23 -19.9349 1409.28C-23.2135 1412.32 -27.6396 1413.84 -33.2132 1413.84C-35.5082 1413.84 -37.6393 1413.56 -39.6065 1413C-41.5737 1412.48 -43.33 1411.71 -44.8757 1410.68C-46.8897 1411.9 -48.8803 1412.72 -50.8474 1413.14C-52.8146 1413.61 -55.133 1413.84 -57.8027 1413.84ZM-33.2835 1380.05C-38.1545 1380.05 -41.0819 1382.91 -42.0654 1388.62H-24.642C-25.6256 1382.91 -28.5061 1380.05 -33.2835 1380.05ZM-33.3537 1406.47C-28.0611 1406.47 -25.087 1402.98 -24.4312 1396H-42.2762C-41.9952 1399.37 -41.1053 1401.97 -39.6065 1403.8C-38.1077 1405.58 -36.0234 1406.47 -33.3537 1406.47ZM-62.0884 1401.48C-62.0884 1404.85 -60.0744 1406.54 -56.0464 1406.54C-55.1564 1406.54 -54.2197 1406.42 -53.2361 1406.19C-52.2057 1405.95 -51.1284 1405.51 -50.0044 1404.85C-51.3158 1402.32 -52.112 1399.37 -52.393 1396C-54.2665 1396 -55.7653 1396.09 -56.8894 1396.28C-57.9667 1396.47 -58.9503 1396.84 -59.8402 1397.4C-60.449 1397.82 -60.9877 1398.39 -61.4561 1399.09C-61.8776 1399.75 -62.0884 1400.54 -62.0884 1401.48ZM44.5858 1393.12C44.5858 1395.88 44.2813 1398.5 43.6724 1400.99C43.1104 1403.47 42.1268 1405.69 40.7217 1407.66C39.3166 1409.58 37.4197 1411.1 35.031 1412.23C32.6423 1413.3 29.6213 1413.84 25.968 1413.84C22.8767 1413.84 20.2773 1413.42 18.1696 1412.58C16.0619 1411.74 14.3289 1410.66 12.9707 1409.35C11.6592 1407.99 10.6288 1406.51 9.8794 1404.92C9.17684 1403.28 8.63821 1401.69 8.26351 1400.14L18.8019 1398.39C19.1297 1399.56 19.5279 1400.78 19.9962 1402.04C20.5114 1403.3 21.2374 1404.38 22.1742 1405.27C23.1577 1406.11 24.4692 1406.54 26.1085 1406.54C28.9187 1406.54 30.9093 1405.32 32.0802 1402.88C33.298 1400.4 33.9069 1397.19 33.9069 1393.26C33.9069 1389.32 33.298 1386.14 32.0802 1383.7C30.9093 1381.22 28.989 1379.98 26.3193 1379.98C24.8205 1379.98 23.5793 1380.4 22.5957 1381.24C21.6121 1382.04 20.8393 1383.05 20.2773 1384.27C19.7152 1385.48 19.2937 1386.75 19.0127 1388.06L8.47428 1386.23C8.98949 1384.64 9.66863 1383.05 10.5117 1381.46C11.3548 1379.86 12.4554 1378.41 13.8137 1377.1C15.2188 1375.74 16.9752 1374.66 19.0829 1373.87C21.1906 1373.07 23.7432 1372.67 26.7408 1372.67C30.1599 1372.67 33.017 1373.24 35.312 1374.36C37.607 1375.44 39.4337 1376.94 40.792 1378.86C42.1502 1380.73 43.1104 1382.91 43.6724 1385.39C44.2813 1387.82 44.5858 1390.4 44.5858 1393.12ZM76.1411 1380.05C72.9561 1380.05 70.0991 1380.33 67.5699 1380.89C65.0406 1381.41 63.0032 1382.27 61.4576 1383.49C62.9095 1383.07 64.2678 1382.86 65.5324 1382.86C68.3427 1382.86 70.5909 1383.33 72.277 1384.27C74.01 1385.2 75.2746 1386.44 76.0708 1387.99C76.867 1389.53 77.2652 1391.22 77.2652 1393.05C77.2652 1395.01 76.7968 1396.84 75.86 1398.53C74.9233 1400.21 73.4479 1401.57 71.4339 1402.6C69.4668 1403.63 66.8907 1404.15 63.7058 1404.15C61.0361 1404.15 58.6708 1403.59 56.6099 1402.46C54.5491 1401.34 52.9332 1399.75 51.7623 1397.68C50.5914 1395.62 50.0059 1393.19 50.0059 1390.38C50.0059 1387.29 50.9426 1384.41 52.8161 1381.74C54.6896 1379.02 57.6169 1376.84 61.5981 1375.2C65.6261 1373.52 70.8485 1372.67 77.2652 1372.67C84.8059 1372.67 90.3796 1373.68 93.986 1375.69C97.5925 1377.66 99.3957 1380.57 99.3957 1384.41C99.3957 1388.11 97.3583 1390.89 93.2835 1392.77C95.6722 1393.89 97.4052 1395.23 98.4824 1396.77C99.5597 1398.27 100.098 1400.03 100.098 1402.04C100.098 1403.73 99.7939 1405.25 99.185 1406.61C98.5761 1407.92 97.733 1409.04 96.6558 1409.98C95.7659 1410.73 94.7354 1411.31 93.5645 1411.74C92.4404 1412.16 90.965 1412.48 89.1384 1412.72C87.3586 1412.91 85.0401 1413 82.1831 1413H68.8345C66.8205 1413 65.3685 1413.05 64.4786 1413.14C63.6355 1413.28 62.9798 1413.47 62.5114 1413.7C61.4342 1414.22 60.8955 1415.04 60.8955 1416.16C60.8955 1417.29 61.3171 1418.13 62.1602 1418.69C62.6754 1418.97 63.3779 1419.18 64.2678 1419.32C65.1577 1419.51 66.6097 1419.6 68.6237 1419.6H98.6932V1427.12H67.2888C61.6684 1427.12 57.5467 1426.3 54.9238 1424.66C51.9731 1422.79 50.4977 1420.1 50.4977 1416.58C50.4977 1414.8 50.8724 1413.19 51.6218 1411.74C52.3712 1410.24 53.5421 1409 55.1346 1408.01C56.3523 1407.26 57.8511 1406.68 59.6309 1406.26C61.4576 1405.83 64.0102 1405.62 67.2888 1405.62H81.059C84.8059 1405.62 87.1946 1405.23 88.2251 1404.43C89.2555 1403.77 89.7707 1402.72 89.7707 1401.27C89.7707 1399.67 89.1618 1398.5 87.944 1397.75C87.4757 1397.43 86.8434 1397.19 86.0471 1397.05C85.2509 1396.91 84.08 1396.84 82.5343 1396.84H81.7615V1389.46H82.3938C83.6116 1389.46 84.6186 1389.42 85.4148 1389.32C86.2111 1389.18 86.9136 1388.9 87.5225 1388.48C88.5061 1387.82 88.9979 1386.79 88.9979 1385.39C88.9979 1384.22 88.6232 1383.26 87.8738 1382.51C87.1712 1381.71 85.8832 1381.1 84.0097 1380.68C82.1362 1380.26 79.5133 1380.05 76.1411 1380.05ZM58.4366 1391.29C58.4366 1393.21 58.8815 1394.76 59.7715 1395.93C60.6614 1397.05 61.9026 1397.61 63.495 1397.61C64.9938 1397.61 66.0711 1397.19 66.7268 1396.35C67.4293 1395.46 67.7806 1394.38 67.7806 1393.12C67.7806 1391.9 67.4293 1390.89 66.7268 1390.1C66.0242 1389.25 64.947 1388.83 63.495 1388.83C62.5114 1388.83 61.6215 1388.93 60.8253 1389.11C60.0291 1389.3 59.2562 1389.56 58.5069 1389.89C58.46 1390.26 58.4366 1390.73 58.4366 1391.29ZM140.227 1393.12C140.227 1395.88 139.923 1398.5 139.314 1400.99C138.752 1403.47 137.768 1405.69 136.363 1407.66C134.958 1409.58 133.061 1411.1 130.672 1412.23C128.283 1413.3 125.262 1413.84 121.609 1413.84C118.518 1413.84 115.918 1413.42 113.811 1412.58C111.703 1411.74 109.97 1410.66 108.612 1409.35C107.3 1407.99 106.27 1406.51 105.521 1404.92C104.818 1403.28 104.279 1401.69 103.905 1400.14L114.443 1398.39C114.771 1399.56 115.169 1400.78 115.637 1402.04C116.153 1403.3 116.879 1404.38 117.815 1405.27C118.799 1406.11 120.11 1406.54 121.75 1406.54C124.56 1406.54 126.551 1405.32 127.721 1402.88C128.939 1400.4 129.548 1397.19 129.548 1393.26C129.548 1389.32 128.939 1386.14 127.721 1383.7C126.551 1381.22 124.63 1379.98 121.96 1379.98C120.462 1379.98 119.22 1380.4 118.237 1381.24C117.253 1382.04 116.481 1383.05 115.918 1384.27C115.356 1385.48 114.935 1386.75 114.654 1388.06L104.115 1386.23C104.631 1384.64 105.31 1383.05 106.153 1381.46C106.996 1379.86 108.097 1378.41 109.455 1377.1C110.86 1375.74 112.616 1374.66 114.724 1373.87C116.832 1373.07 119.384 1372.67 122.382 1372.67C125.801 1372.67 128.658 1373.24 130.953 1374.36C133.248 1375.44 135.075 1376.94 136.433 1378.86C137.791 1380.73 138.752 1382.91 139.314 1385.39C139.923 1387.82 140.227 1390.4 140.227 1393.12ZM165.178 1372.67C167.286 1372.67 169.066 1372.86 170.518 1373.24C171.97 1373.56 173.258 1374.1 174.382 1374.85C175.553 1375.55 176.724 1376.47 177.895 1377.59C179.628 1375.9 181.548 1374.66 183.655 1373.87C185.763 1373.07 188.292 1372.67 191.243 1372.67C195.271 1372.67 198.69 1373.52 201.5 1375.2C204.311 1376.89 206.465 1379.21 207.964 1382.16C209.463 1385.06 210.212 1388.34 210.212 1391.99C210.212 1397.24 208.971 1401.78 206.489 1405.62H220.54V1373.52H230.867V1413H196.372L193.281 1408.71C195.622 1405.67 197.285 1402.95 198.269 1400.56C199.252 1398.13 199.744 1395.51 199.744 1392.7C199.744 1388.39 198.784 1385.23 196.864 1383.21C194.99 1381.15 192.742 1380.12 190.119 1380.12C188.761 1380.12 187.66 1380.35 186.817 1380.82C185.974 1381.24 185.295 1381.78 184.78 1382.44C184.171 1383.28 183.726 1384.34 183.445 1385.6C183.211 1386.82 183.093 1388.43 183.093 1390.45V1413H172.766V1390.31C172.766 1388.2 172.649 1386.56 172.415 1385.39C172.18 1384.22 171.759 1383.21 171.15 1382.37C170.682 1381.71 170.002 1381.17 169.113 1380.75C168.269 1380.33 167.145 1380.12 165.74 1380.12C164.148 1380.12 162.602 1380.54 161.103 1381.38C159.651 1382.23 158.457 1383.56 157.52 1385.39C156.584 1387.17 156.115 1389.49 156.115 1392.34C156.115 1395.2 156.63 1397.94 157.661 1400.56C158.691 1403.14 160.424 1405.79 162.86 1408.5L155.553 1413.84C152.368 1410.75 149.909 1407.5 148.176 1404.08C146.49 1400.66 145.647 1396.72 145.647 1392.27C145.647 1388.53 146.396 1385.18 147.895 1382.23C149.441 1379.28 151.666 1376.96 154.57 1375.27C157.473 1373.54 161.01 1372.67 165.178 1372.67ZM233.852 1353.21C238.02 1353.21 241.322 1354.03 243.758 1355.67C245.35 1356.7 246.591 1357.94 247.481 1359.39C248.418 1360.8 249.097 1362.65 249.519 1364.95C249.94 1367.19 250.151 1370.17 250.151 1373.87V1413H239.753V1375.48C239.753 1371.97 239.636 1369.21 239.402 1367.19C239.168 1365.18 238.699 1363.68 237.997 1362.7C237.528 1362.04 236.966 1361.53 236.311 1361.15C235.655 1360.78 234.788 1360.59 233.711 1360.59C232.493 1360.59 231.393 1360.99 230.409 1361.78C229.426 1362.58 228.934 1363.82 228.934 1365.51C228.934 1366.4 229.051 1367.24 229.285 1368.04L219.168 1369.23C218.793 1368.01 218.606 1366.75 218.606 1365.44C218.606 1362.72 219.285 1360.47 220.644 1358.69C221.955 1356.87 223.758 1355.51 226.053 1354.62C228.348 1353.68 230.948 1353.21 233.852 1353.21Z" fill="#06092D"/>
<rect x="-120" y="1336" width="517" height="105" fill="url(#paint1_linear)"/>
<rect width="486" height="105" transform="matrix(-1 0 0 1 1459 1336)" fill="url(#paint2_linear)"/>
<path d="M593.032 1371.67C595.912 1371.67 598.384 1372.08 600.448 1372.9C602.512 1373.66 604.312 1374.84 605.848 1376.42C607.384 1378.01 608.512 1379.93 609.232 1382.18C610 1384.44 610.384 1387.34 610.384 1390.9V1393.49C610.384 1396.08 610.48 1398.14 610.672 1399.68C610.912 1401.17 611.344 1402.39 611.968 1403.35C613.12 1405.22 615.136 1406.16 618.016 1406.16C620.416 1406.16 622.456 1405.18 624.136 1403.21C625.816 1401.24 626.656 1398 626.656 1393.49C626.656 1390.56 626.128 1387.8 625.072 1385.21C624.064 1382.57 622.312 1379.86 619.816 1377.07L627.16 1371.6C630.424 1374.67 632.944 1377.98 634.72 1381.54C636.496 1385.09 637.384 1389.24 637.384 1393.99C637.384 1398.02 636.568 1401.53 634.936 1404.5C633.304 1407.48 631 1409.78 628.024 1411.42C625.096 1413.05 621.616 1413.86 617.584 1413.86C614.416 1413.86 611.68 1413.46 609.376 1412.64C607.12 1411.78 605.272 1410.58 603.832 1409.04C602.296 1407.36 601.192 1405.3 600.52 1402.85C599.896 1400.35 599.584 1397.5 599.584 1394.28V1392.34C599.584 1389.36 599.464 1387.15 599.224 1385.71C599.032 1384.27 598.624 1383.07 598 1382.11C596.896 1380.29 594.952 1379.38 592.168 1379.38C589.768 1379.38 587.992 1380.07 586.84 1381.46C586.072 1382.38 585.52 1383.53 585.184 1384.92C584.848 1386.26 584.68 1388.14 584.68 1390.54V1413H574.096V1391.18C574.096 1388.45 574 1386.43 573.808 1385.14C573.616 1383.79 573.16 1382.66 572.44 1381.75C571.816 1380.94 571 1380.34 569.992 1379.95C568.984 1379.52 568 1379.3 567.04 1379.3C564.304 1379.3 562 1380.38 560.128 1382.54C558.304 1384.7 557.392 1387.92 557.392 1392.19C557.392 1394.98 557.92 1397.69 558.976 1400.33C560.032 1402.92 561.808 1405.61 564.304 1408.39L556.816 1413.86C553.504 1410.74 550.984 1407.38 549.256 1403.78C547.528 1400.18 546.664 1396.08 546.664 1391.47C546.664 1387.68 547.408 1384.3 548.896 1381.32C550.432 1378.34 552.64 1375.99 555.52 1374.26C558.4 1372.54 561.88 1371.67 565.96 1371.67C568.936 1371.67 571.504 1372.08 573.664 1372.9C575.824 1373.71 577.84 1375.06 579.712 1376.93C581.344 1375.34 583.144 1374.07 585.112 1373.11C587.128 1372.15 589.768 1371.67 593.032 1371.67ZM678.711 1392.62C678.711 1395.46 678.399 1398.14 677.775 1400.69C677.199 1403.23 676.191 1405.51 674.751 1407.53C673.311 1409.5 671.367 1411.06 668.919 1412.21C666.471 1413.31 663.375 1413.86 659.631 1413.86C656.463 1413.86 653.799 1413.43 651.639 1412.57C649.479 1411.7 647.703 1410.6 646.311 1409.26C644.967 1407.86 643.911 1406.35 643.143 1404.72C642.423 1403.04 641.871 1401.41 641.487 1399.82L652.287 1398.02C652.623 1399.22 653.031 1400.47 653.511 1401.77C654.039 1403.06 654.783 1404.17 655.743 1405.08C656.751 1405.94 658.095 1406.38 659.775 1406.38C662.655 1406.38 664.695 1405.13 665.895 1402.63C667.143 1400.09 667.767 1396.8 667.767 1392.77C667.767 1388.74 667.143 1385.47 665.895 1382.98C664.695 1380.43 662.727 1379.16 659.991 1379.16C658.455 1379.16 657.183 1379.59 656.175 1380.46C655.167 1381.27 654.375 1382.3 653.799 1383.55C653.223 1384.8 652.791 1386.1 652.503 1387.44L641.703 1385.57C642.231 1383.94 642.927 1382.3 643.791 1380.67C644.655 1379.04 645.783 1377.55 647.175 1376.21C648.615 1374.82 650.415 1373.71 652.575 1372.9C654.735 1372.08 657.351 1371.67 660.423 1371.67C663.927 1371.67 666.855 1372.25 669.207 1373.4C671.559 1374.5 673.431 1376.04 674.823 1378.01C676.215 1379.93 677.199 1382.16 677.775 1384.7C678.399 1387.2 678.711 1389.84 678.711 1392.62ZM704.282 1371.67C706.442 1371.67 708.266 1371.86 709.754 1372.25C711.242 1372.58 712.562 1373.14 713.714 1373.9C714.914 1374.62 716.114 1375.56 717.314 1376.71C719.09 1374.98 721.058 1373.71 723.218 1372.9C725.378 1372.08 727.97 1371.67 730.994 1371.67C735.122 1371.67 738.626 1372.54 741.506 1374.26C744.386 1375.99 746.594 1378.34 748.13 1381.32C749.666 1384.3 750.434 1387.68 750.434 1391.47C750.434 1396.08 749.57 1400.18 747.842 1403.78C746.114 1407.38 743.594 1410.74 740.282 1413.86L732.794 1408.39C735.338 1405.61 737.114 1402.92 738.122 1400.33C739.178 1397.69 739.706 1394.98 739.706 1392.19C739.706 1387.78 738.722 1384.54 736.754 1382.47C734.834 1380.36 732.53 1379.3 729.842 1379.3C728.45 1379.3 727.322 1379.54 726.458 1380.02C725.594 1380.46 724.898 1381.01 724.37 1381.68C723.746 1382.54 723.29 1383.62 723.002 1384.92C722.762 1386.17 722.642 1387.82 722.642 1389.89V1413H712.058V1389.74C712.058 1387.58 711.938 1385.9 711.698 1384.7C711.458 1383.5 711.026 1382.47 710.402 1381.61C709.922 1380.94 709.226 1380.38 708.314 1379.95C707.45 1379.52 706.298 1379.3 704.858 1379.3C703.226 1379.3 701.642 1379.74 700.106 1380.6C698.618 1381.46 697.394 1382.83 696.434 1384.7C695.474 1386.53 694.994 1388.9 694.994 1391.83C694.994 1394.76 695.522 1397.57 696.578 1400.26C697.634 1402.9 699.41 1405.61 701.906 1408.39L694.418 1413.86C691.154 1410.7 688.634 1407.36 686.858 1403.86C685.13 1400.35 684.266 1396.32 684.266 1391.76C684.266 1387.92 685.034 1384.49 686.57 1381.46C688.154 1378.44 690.434 1376.06 693.41 1374.34C696.386 1372.56 700.01 1371.67 704.282 1371.67ZM771.181 1413.86C767.917 1413.86 765.085 1413.29 762.685 1412.14C760.285 1410.94 758.437 1409.3 757.141 1407.24C755.845 1405.13 755.197 1402.73 755.197 1400.04C755.197 1397.3 755.869 1394.9 757.213 1392.84C758.605 1390.73 760.501 1389.1 762.901 1387.94C765.301 1386.79 768.037 1386.22 771.109 1386.22C774.277 1386.22 777.061 1386.79 779.461 1387.94C781.861 1389.05 783.733 1390.63 785.077 1392.7C786.469 1394.76 787.165 1397.21 787.165 1400.04C787.165 1402.82 786.469 1405.27 785.077 1407.38C783.733 1409.45 781.861 1411.06 779.461 1412.21C777.061 1413.31 774.301 1413.86 771.181 1413.86ZM771.109 1393.56C769.381 1393.56 767.917 1394.11 766.717 1395.22C765.565 1396.27 764.989 1397.9 764.989 1400.11C764.989 1402.18 765.565 1403.76 766.717 1404.86C767.917 1405.97 769.405 1406.52 771.181 1406.52C772.909 1406.52 774.373 1405.99 775.573 1404.94C776.773 1403.88 777.373 1402.25 777.373 1400.04C777.373 1397.88 776.773 1396.27 775.573 1395.22C774.421 1394.11 772.933 1393.56 771.109 1393.56Z" fill="#06092D"/>
<path d="M1055.5 745.696C1055.5 737.027 1048.47 730 1039.8 730H189.696C181.027 730 174 737.027 174 745.696V1099.64C174 1108.31 181.027 1115.34 189.696 1115.34H1039.8C1048.47 1115.34 1055.5 1108.31 1055.5 1099.64V745.696Z" fill="#FABC02"/>
<path d="M227.759 1173.02L308.593 1092.18H227.759V1173.02Z" fill="#FABC02"/>
<path d="M260.08 867.936C263.968 867.936 267.136 868.632 269.584 870.024C272.08 871.368 273.904 873.096 275.056 875.208C276.256 877.272 276.856 879.432 276.856 881.688C276.856 882.552 276.76 883.392 276.568 884.208C276.424 885.024 276.232 885.768 275.992 886.44H296.008V853.536H306.592V894H267.856L264.112 889.824C264.688 889.008 265.24 888 265.768 886.8C266.296 885.552 266.56 884.088 266.56 882.408C266.56 880.44 266.032 878.784 264.976 877.44C263.92 876.096 262.312 875.424 260.152 875.424C257.944 875.424 256.288 876.096 255.184 877.44C254.128 878.736 253.6 880.368 253.6 882.336C253.6 884.304 253.936 885.936 254.608 887.232C255.328 888.528 256.072 889.728 256.84 890.832L248.632 894.864C246.856 892.896 245.488 890.88 244.528 888.816C243.568 886.752 243.088 884.4 243.088 881.76C243.088 878.976 243.808 876.552 245.248 874.488C246.688 872.424 248.68 870.816 251.224 869.664C253.768 868.512 256.72 867.936 260.08 867.936ZM323.846 910.92C319.19 910.92 315.494 909.696 312.758 907.248C310.07 904.8 308.726 901.656 308.726 897.816C308.726 894.6 309.71 891.888 311.678 889.68C313.694 887.424 316.334 885.936 319.598 885.216C320.702 881.664 321.566 878.376 322.19 875.352C322.814 872.28 323.126 869.496 323.126 867C323.126 865.128 322.79 863.568 322.118 862.32C321.446 861.024 320.174 860.376 318.302 860.376C316.814 860.376 315.494 860.544 314.342 860.88L312.758 853.608C313.862 853.368 315.086 853.152 316.43 852.96C317.822 852.768 319.43 852.672 321.254 852.672C324.422 852.672 326.918 853.248 328.742 854.4C330.614 855.504 331.934 856.992 332.702 858.864C333.47 860.688 333.854 862.68 333.854 864.84C333.854 868.344 333.446 871.728 332.63 874.992C331.814 878.256 330.83 881.784 329.678 885.576C332.51 886.488 334.766 888 336.446 890.112C338.126 892.224 338.966 894.792 338.966 897.816C338.966 900.456 338.318 902.76 337.022 904.728C335.726 906.696 333.95 908.208 331.694 909.264C329.438 910.368 326.822 910.92 323.846 910.92ZM323.846 904.008C325.526 904.008 326.918 903.48 328.022 902.424C329.174 901.416 329.75 899.88 329.75 897.816C329.75 895.8 329.198 894.288 328.094 893.28C326.99 892.224 325.55 891.696 323.774 891.696C322.142 891.696 320.75 892.224 319.598 893.28C318.494 894.288 317.942 895.824 317.942 897.888C317.942 899.856 318.494 901.368 319.598 902.424C320.75 903.48 322.166 904.008 323.846 904.008ZM378.991 894.864C373.471 894.864 369.223 893.376 366.247 890.4C363.271 887.424 361.783 883.104 361.783 877.44C361.783 874.032 362.551 870.864 364.087 867.936C365.671 865.008 367.831 862.416 370.567 860.16C369.655 860.064 368.695 860.016 367.687 860.016C362.215 860.016 358.207 861.312 355.663 863.904C353.119 866.448 351.847 869.736 351.847 873.768C351.847 877.128 352.447 879.984 353.647 882.336C354.895 884.688 356.743 887.04 359.191 889.392L352.135 894.864C349.975 893.088 348.055 891.216 346.375 889.248C344.743 887.232 343.447 884.976 342.487 882.48C341.527 879.936 341.047 877.032 341.047 873.768C341.047 871.176 341.479 868.632 342.343 866.136C343.255 863.64 344.695 861.384 346.663 859.368C348.631 857.304 351.247 855.672 354.511 854.472C357.775 853.272 361.759 852.672 366.463 852.672C369.103 852.672 371.479 852.888 373.591 853.32C375.703 853.704 377.719 854.304 379.639 855.12C381.367 854.352 383.311 853.752 385.471 853.32C387.679 852.888 390.199 852.672 393.031 852.672C397.495 852.672 401.263 853.272 404.335 854.472C407.455 855.624 409.951 857.208 411.823 859.224C413.743 861.24 415.135 863.52 415.999 866.064C416.863 868.56 417.295 871.152 417.295 873.84C417.295 877.104 416.815 880.008 415.855 882.552C414.943 885.048 413.647 887.28 411.967 889.248C410.287 891.216 408.319 893.088 406.063 894.864L399.223 889.392C401.335 887.232 403.063 885 404.407 882.696C405.799 880.392 406.495 877.464 406.495 873.912C406.495 869.688 405.271 866.328 402.823 863.832C400.375 861.288 396.847 860.016 392.239 860.016C390.703 860.016 389.383 860.064 388.279 860.16C390.775 862.368 392.719 864.936 394.111 867.864C395.503 870.792 396.199 874.008 396.199 877.512C396.199 883.32 394.711 887.664 391.735 890.544C388.807 893.424 384.559 894.864 378.991 894.864ZM372.439 877.152C372.439 879.84 372.751 881.928 373.375 883.416C373.999 884.856 374.815 885.864 375.823 886.44C376.831 887.016 377.887 887.304 378.991 887.304C380.143 887.304 381.223 887.016 382.231 886.44C383.239 885.864 384.031 884.88 384.607 883.488C385.231 882.048 385.543 880.08 385.543 877.584C385.543 874.656 384.967 871.992 383.815 869.592C382.711 867.192 381.127 865.176 379.063 863.544C376.855 865.272 375.199 867.336 374.095 869.736C372.991 872.136 372.439 874.608 372.439 877.152ZM418.433 832.728C422.705 832.728 426.089 833.568 428.585 835.248C430.217 836.304 431.489 837.576 432.401 839.064C433.361 840.504 434.057 842.4 434.489 844.752C434.921 847.056 435.137 850.104 435.137 853.896V894H424.481V855.552C424.481 851.952 424.361 849.12 424.121 847.056C423.881 844.992 423.401 843.456 422.681 842.448C422.201 841.776 421.625 841.248 420.953 840.864C420.281 840.48 419.393 840.288 418.289 840.288C417.041 840.288 415.913 840.696 414.905 841.512C413.897 842.328 413.393 843.6 413.393 845.328C413.393 846.24 413.513 847.104 413.753 847.92L403.385 849.144C403.001 847.896 402.809 846.6 402.809 845.256C402.809 842.472 403.505 840.168 404.897 838.344C406.241 836.472 408.089 835.08 410.441 834.168C412.793 833.208 415.457 832.728 418.433 832.728ZM492.623 894.864C490.367 894.864 488.351 894.72 486.575 894.432C484.847 894.192 483.071 893.736 481.247 893.064C477.791 894.264 473.831 894.864 469.367 894.864C463.511 894.864 458.567 893.856 454.535 891.84C450.503 889.776 447.455 886.896 445.391 883.2C443.375 879.456 442.367 875.064 442.367 870.024C442.367 866.616 443.039 863.616 444.383 861.024C445.727 858.384 447.743 856.344 450.431 854.904C453.167 853.416 456.551 852.672 460.583 852.672C462.551 852.672 464.423 852.912 466.199 853.392C468.023 853.824 469.679 854.52 471.167 855.48C472.703 854.424 474.383 853.704 476.207 853.32C478.031 852.888 479.855 852.672 481.679 852.672C487.151 852.672 491.423 854.112 494.495 856.992C497.615 859.824 499.175 864.168 499.175 870.024C499.175 873.672 498.431 876.96 496.943 879.888C495.503 882.816 493.559 885.336 491.111 887.448C491.591 887.496 492.071 887.52 492.551 887.52C497.399 887.52 501.263 886.128 504.143 883.344C507.071 880.56 508.535 876.552 508.535 871.32C508.535 869.016 508.199 866.712 507.527 864.408C506.855 862.104 505.679 859.8 503.999 857.496L512.063 852.672C514.559 855.552 516.383 858.552 517.535 861.672C518.735 864.792 519.335 867.984 519.335 871.248C519.335 874.32 518.879 877.272 517.967 880.104C517.055 882.888 515.567 885.408 513.503 887.664C511.439 889.872 508.679 891.624 505.223 892.92C501.815 894.216 497.615 894.864 492.623 894.864ZM474.551 870.096C474.551 873.36 475.151 876.288 476.351 878.88C477.551 881.424 479.207 883.464 481.319 885C483.287 883.656 484.967 881.688 486.359 879.096C487.751 876.504 488.447 873.48 488.447 870.024C488.447 867.576 488.111 865.656 487.439 864.264C486.767 862.824 485.903 861.792 484.847 861.168C483.839 860.544 482.759 860.232 481.607 860.232C479.495 860.232 477.791 861.024 476.495 862.608C475.199 864.192 474.551 866.688 474.551 870.096ZM453.023 870.096C453.023 873.552 453.695 876.6 455.039 879.24C456.431 881.832 458.399 883.872 460.943 885.36C463.487 886.8 466.511 887.52 470.015 887.52C470.495 887.52 470.975 887.52 471.455 887.52C468.671 884.976 466.703 882.192 465.551 879.168C464.447 876.144 463.895 873.096 463.895 870.024C463.895 868.44 464.015 867.024 464.255 865.776C464.543 864.48 464.903 863.304 465.335 862.248C463.991 860.904 462.383 860.232 460.511 860.232C458.063 860.232 456.191 861.144 454.895 862.968C453.647 864.744 453.023 867.12 453.023 870.096ZM561.791 867.936C565.679 867.936 568.847 868.632 571.295 870.024C573.791 871.368 575.615 873.096 576.767 875.208C577.967 877.272 578.567 879.432 578.567 881.688C578.567 882.552 578.471 883.392 578.279 884.208C578.135 885.024 577.943 885.768 577.703 886.44H586.631C586.583 885.528 586.559 884.616 586.559 883.704C586.559 879.336 587.111 875.28 588.215 871.536C589.319 867.792 590.999 864.504 593.255 861.672C595.511 858.84 598.343 856.632 601.751 855.048C605.207 853.464 609.263 852.672 613.919 852.672C622.655 852.672 629.207 855.264 633.575 860.448C637.943 865.632 640.127 872.808 640.127 881.976C640.127 887.784 639.167 892.968 637.247 897.528C635.375 902.088 632.807 906.384 629.543 910.416L621.623 905.592C624.311 902.04 626.231 898.32 627.383 894.432C628.535 890.592 629.111 886.416 629.111 881.904C629.111 879.024 628.847 876.288 628.319 873.696C627.791 871.056 626.927 868.728 625.727 866.712C624.527 864.696 622.943 863.112 620.975 861.96C619.055 860.76 616.655 860.16 613.775 860.16C610.031 860.16 606.935 861.168 604.487 863.184C602.039 865.152 600.215 867.912 599.015 871.464C597.815 874.968 597.215 879.048 597.215 883.704C597.215 884.712 597.215 885.624 597.215 886.44H607.583V865.992H618.167V897.312C618.167 899.808 617.879 901.824 617.303 903.36C616.775 904.896 615.935 906.216 614.783 907.32C613.727 908.28 612.383 909.024 610.751 909.552C609.119 910.128 607.151 910.416 604.847 910.416C600.383 910.416 596.639 909.048 593.615 906.312C590.639 903.624 588.599 899.52 587.495 894H569.567L565.823 889.824C566.399 889.008 566.951 888 567.479 886.8C568.007 885.552 568.271 884.088 568.271 882.408C568.271 880.44 567.743 878.784 566.687 877.44C565.631 876.096 564.023 875.424 561.863 875.424C559.655 875.424 557.999 876.096 556.895 877.44C555.839 878.736 555.311 880.368 555.311 882.336C555.311 884.304 555.647 885.936 556.319 887.232C557.039 888.528 557.783 889.728 558.551 890.832L550.343 894.864C548.567 892.896 547.199 890.88 546.239 888.816C545.279 886.752 544.799 884.4 544.799 881.76C544.799 878.976 545.519 876.552 546.959 874.488C548.399 872.424 550.391 870.816 552.935 869.664C555.479 868.512 558.431 867.936 561.791 867.936ZM607.583 898.968V894H597.647C598.127 897.408 598.967 899.784 600.167 901.128C601.415 902.472 602.879 903.144 604.559 903.144C605.615 903.144 606.407 902.808 606.935 902.136C607.367 901.56 607.583 900.504 607.583 898.968ZM696.037 894.864C693.781 894.864 691.765 894.72 689.989 894.432C688.261 894.192 686.485 893.736 684.661 893.064C681.205 894.264 677.245 894.864 672.781 894.864C666.925 894.864 661.981 893.856 657.949 891.84C653.917 889.776 650.869 886.896 648.805 883.2C646.789 879.456 645.781 875.064 645.781 870.024C645.781 866.616 646.453 863.616 647.797 861.024C649.141 858.384 651.157 856.344 653.845 854.904C656.581 853.416 659.965 852.672 663.997 852.672C665.965 852.672 667.837 852.912 669.613 853.392C671.437 853.824 673.093 854.52 674.581 855.48C676.117 854.424 677.797 853.704 679.621 853.32C681.445 852.888 683.269 852.672 685.093 852.672C690.565 852.672 694.837 854.112 697.909 856.992C701.029 859.824 702.589 864.168 702.589 870.024C702.589 873.672 701.845 876.96 700.357 879.888C698.917 882.816 696.973 885.336 694.525 887.448C695.005 887.496 695.485 887.52 695.965 887.52C700.813 887.52 704.677 886.128 707.557 883.344C710.485 880.56 711.949 876.552 711.949 871.32C711.949 869.016 711.613 866.712 710.941 864.408C710.269 862.104 709.093 859.8 707.413 857.496L715.477 852.672C717.973 855.552 719.797 858.552 720.949 861.672C722.149 864.792 722.749 867.984 722.749 871.248C722.749 874.32 722.293 877.272 721.381 880.104C720.469 882.888 718.981 885.408 716.917 887.664C714.853 889.872 712.093 891.624 708.637 892.92C705.229 894.216 701.029 894.864 696.037 894.864ZM677.965 870.096C677.965 873.36 678.565 876.288 679.765 878.88C680.965 881.424 682.621 883.464 684.733 885C686.701 883.656 688.381 881.688 689.773 879.096C691.165 876.504 691.861 873.48 691.861 870.024C691.861 867.576 691.525 865.656 690.853 864.264C690.181 862.824 689.317 861.792 688.261 861.168C687.253 860.544 686.173 860.232 685.021 860.232C682.909 860.232 681.205 861.024 679.909 862.608C678.613 864.192 677.965 866.688 677.965 870.096ZM656.437 870.096C656.437 873.552 657.109 876.6 658.453 879.24C659.845 881.832 661.813 883.872 664.357 885.36C666.901 886.8 669.925 887.52 673.429 887.52C673.909 887.52 674.389 887.52 674.869 887.52C672.085 884.976 670.117 882.192 668.965 879.168C667.861 876.144 667.309 873.096 667.309 870.024C667.309 868.44 667.429 867.024 667.669 865.776C667.957 864.48 668.317 863.304 668.749 862.248C667.405 860.904 665.797 860.232 663.925 860.232C661.477 860.232 659.605 861.144 658.309 862.968C657.061 864.744 656.437 867.12 656.437 870.096ZM764.835 894.864C759.363 894.864 755.211 893.376 752.379 890.4C749.547 887.376 748.131 883.128 748.131 877.656C748.131 875.064 748.731 872.328 749.931 869.448C751.179 866.52 753.579 863.448 757.131 860.232C756.315 860.136 755.379 860.088 754.323 860.088C749.379 860.088 745.587 861.312 742.947 863.76C740.307 866.208 738.987 869.544 738.987 873.768C738.987 877.128 739.587 879.984 740.787 882.336C742.035 884.688 743.883 887.04 746.331 889.392L739.275 894.864C737.115 893.088 735.195 891.216 733.515 889.248C731.883 887.232 730.587 884.976 729.627 882.48C728.667 879.936 728.187 877.032 728.187 873.768C728.187 870.984 728.667 868.344 729.627 865.848C730.635 863.304 732.171 861.048 734.235 859.08C736.299 857.112 738.963 855.552 742.227 854.4C745.491 853.248 749.427 852.672 754.035 852.672C757.539 852.672 760.707 853.056 763.539 853.824C764.547 852.864 765.315 851.928 765.843 851.016C766.371 850.104 766.635 849.096 766.635 847.992C766.635 846.744 766.251 845.76 765.483 845.04C764.763 844.32 763.515 843.96 761.739 843.96C760.875 843.96 760.011 844.032 759.147 844.176C758.331 844.32 757.659 844.464 757.131 844.608L755.259 837.696C756.411 837.312 757.899 837 759.723 836.76C761.547 836.52 763.419 836.4 765.339 836.4C768.507 836.4 770.931 836.904 772.611 837.912C774.339 838.92 775.515 840.168 776.139 841.656C776.811 843.144 777.147 844.632 777.147 846.12C777.147 848.232 776.667 850.224 775.707 852.096C774.795 853.92 773.427 855.744 771.603 857.568C775.011 859.92 777.579 862.872 779.307 866.424C781.035 869.928 781.899 873.552 781.899 877.296C781.899 882.864 780.459 887.184 777.579 890.256C774.699 893.328 770.451 894.864 764.835 894.864ZM758.715 878.016C758.715 880.896 759.195 883.176 760.155 884.856C761.163 886.488 762.771 887.304 764.979 887.304C766.995 887.304 768.507 886.56 769.515 885.072C770.571 883.584 771.099 881.16 771.099 877.8C771.099 875.256 770.595 872.688 769.587 870.096C768.627 867.504 767.091 865.32 764.979 863.544C762.723 865.8 761.115 868.224 760.155 870.816C759.195 873.36 758.715 875.76 758.715 878.016ZM832.394 852.672C836.426 852.672 839.906 853.488 842.834 855.12C845.81 856.704 848.09 858.984 849.674 861.96C851.306 864.888 852.122 868.368 852.122 872.4C852.122 877.056 851.258 881.184 849.53 884.784C847.802 888.384 845.282 891.744 841.97 894.864L834.482 889.392C837.026 886.608 838.802 883.896 839.81 881.256C840.866 878.616 841.394 875.856 841.394 872.976C841.394 868.656 840.53 865.488 838.802 863.472C837.074 861.408 834.962 860.376 832.466 860.376C831.074 860.376 829.898 860.616 828.938 861.096C828.026 861.576 827.282 862.272 826.706 863.184C826.082 864.144 825.65 865.416 825.41 867C825.17 868.584 825.05 870.792 825.05 873.624V875.28C825.05 878.496 824.714 881.352 824.042 883.848C823.418 886.296 822.338 888.36 820.802 890.04C819.362 891.576 817.49 892.776 815.186 893.64C812.93 894.456 810.218 894.864 807.05 894.864C803.018 894.864 799.514 894.048 796.538 892.416C793.61 890.784 791.33 888.48 789.698 885.504C788.066 882.528 787.25 879.024 787.25 874.992C787.25 870.24 788.138 866.088 789.914 862.536C791.69 858.984 794.21 855.672 797.474 852.6L804.818 858.072C802.322 860.856 800.546 863.568 799.49 866.208C798.482 868.8 797.978 871.56 797.978 874.488C797.978 879 798.818 882.24 800.498 884.208C802.178 886.176 804.218 887.16 806.618 887.16C809.498 887.16 811.514 886.224 812.666 884.352C813.29 883.392 813.698 882.168 813.89 880.68C814.13 879.144 814.25 877.08 814.25 874.488V872.328C814.25 865.608 815.882 860.616 819.146 857.352C820.538 855.96 822.242 854.832 824.258 853.968C826.322 853.104 829.034 852.672 832.394 852.672ZM883.486 852.672C887.134 852.672 890.254 853.104 892.846 853.968C895.486 854.832 897.862 856.128 899.974 857.856C901.606 856.08 903.526 854.784 905.734 853.968C907.99 853.104 910.462 852.672 913.15 852.672C916.51 852.672 919.198 853.2 921.214 854.256C923.278 855.264 925.174 856.68 926.902 858.504C928.87 856.776 931.222 855.384 933.958 854.328C936.742 853.224 940.438 852.672 945.046 852.672C948.502 852.672 951.646 853.056 954.478 853.824C955.486 852.864 956.254 851.928 956.782 851.016C957.31 850.104 957.574 849.096 957.574 847.992C957.574 846.744 957.19 845.76 956.422 845.04C955.702 844.32 954.454 843.96 952.678 843.96C951.766 843.96 950.902 844.032 950.086 844.176C949.27 844.32 948.598 844.464 948.07 844.608L946.198 837.696C947.35 837.312 948.838 837 950.662 836.76C952.486 836.52 954.358 836.4 956.278 836.4C959.446 836.4 961.87 836.904 963.55 837.912C965.278 838.92 966.454 840.168 967.078 841.656C967.75 843.144 968.086 844.632 968.086 846.12C968.086 848.232 967.606 850.224 966.646 852.096C965.734 853.92 964.366 855.744 962.542 857.568C965.95 859.872 968.518 862.776 970.246 866.28C971.974 869.784 972.838 873.432 972.838 877.224C972.838 882.792 971.398 887.136 968.518 890.256C965.638 893.328 961.366 894.864 955.702 894.864C950.278 894.864 946.15 893.376 943.318 890.4C940.486 887.376 939.07 883.128 939.07 877.656C939.07 875.064 939.67 872.328 940.87 869.448C942.118 866.52 944.518 863.448 948.07 860.232C947.254 860.136 946.318 860.088 945.262 860.088C943.39 860.088 941.686 860.28 940.15 860.664C938.614 861 937.222 861.624 935.974 862.536C935.11 863.208 934.342 864.072 933.67 865.128C932.998 866.184 932.47 867.6 932.086 869.376C931.702 871.104 931.51 873.384 931.51 876.216V894H920.926V871.608C920.926 869.208 920.782 867.312 920.494 865.92C920.206 864.48 919.654 863.304 918.838 862.392C918.262 861.72 917.494 861.216 916.534 860.88C915.622 860.496 914.494 860.304 913.15 860.304C911.95 860.304 910.87 860.52 909.91 860.952C908.998 861.336 908.206 861.888 907.534 862.608C906.766 863.52 906.214 864.672 905.878 866.064C905.542 867.408 905.374 869.496 905.374 872.328V894H894.79V874.704C894.79 871.008 894.502 868.32 893.926 866.64C893.35 864.96 892.558 863.688 891.55 862.824C890.638 862.008 889.558 861.384 888.31 860.952C887.062 860.52 885.382 860.304 883.27 860.304C879.622 860.304 876.406 861.192 873.622 862.968C870.886 864.696 869.014 867.288 868.006 870.744C869.11 870.216 870.31 869.808 871.606 869.52C872.902 869.184 874.27 869.016 875.71 869.016C879.838 869.016 883.006 870.144 885.214 872.4C887.422 874.656 888.526 877.68 888.526 881.472C888.526 885.648 887.254 888.936 884.71 891.336C882.166 893.688 878.59 894.864 873.982 894.864C871.102 894.864 868.39 894.24 865.846 892.992C863.35 891.744 861.31 889.776 859.726 887.088C858.19 884.4 857.422 880.896 857.422 876.576C857.422 871.392 858.574 867.024 860.878 863.472C863.182 859.92 866.302 857.232 870.238 855.408C874.222 853.584 878.638 852.672 883.486 852.672ZM949.654 878.016C949.654 880.896 950.134 883.176 951.094 884.856C952.102 886.488 953.686 887.304 955.846 887.304C957.91 887.304 959.446 886.56 960.454 885.072C961.51 883.584 962.038 881.16 962.038 877.8C962.038 875.256 961.534 872.688 960.526 870.096C959.566 867.504 958.03 865.32 955.918 863.544C953.662 865.8 952.054 868.224 951.094 870.816C950.134 873.36 949.654 875.76 949.654 878.016ZM873.118 876.216C871.102 876.216 869.11 876.888 867.142 878.232C867.286 881.736 867.958 884.184 869.158 885.576C870.406 886.968 871.894 887.664 873.622 887.664C876.742 887.664 878.302 885.768 878.302 881.976C878.302 880.152 877.87 878.736 877.006 877.728C876.19 876.72 874.894 876.216 873.118 876.216ZM260.08 975.936C263.968 975.936 267.136 976.632 269.584 978.024C272.08 979.368 273.904 981.096 275.056 983.208C276.256 985.272 276.856 987.432 276.856 989.688C276.856 990.552 276.76 991.392 276.568 992.208C276.424 993.024 276.232 993.768 275.992 994.44H284.92C284.872 993.528 284.848 992.616 284.848 991.704C284.848 987.336 285.4 983.28 286.504 979.536C287.608 975.792 289.288 972.504 291.544 969.672C293.8 966.84 296.632 964.632 300.04 963.048C303.496 961.464 307.552 960.672 312.208 960.672C320.944 960.672 327.496 963.264 331.864 968.448C336.232 973.632 338.416 980.808 338.416 989.976C338.416 995.784 337.456 1000.97 335.536 1005.53C333.664 1010.09 331.096 1014.38 327.832 1018.42L319.912 1013.59C322.6 1010.04 324.52 1006.32 325.672 1002.43C326.824 998.592 327.4 994.416 327.4 989.904C327.4 987.024 327.136 984.288 326.608 981.696C326.08 979.056 325.216 976.728 324.016 974.712C322.816 972.696 321.232 971.112 319.264 969.96C317.344 968.76 314.944 968.16 312.064 968.16C308.32 968.16 305.224 969.168 302.776 971.184C300.328 973.152 298.504 975.912 297.304 979.464C296.104 982.968 295.504 987.048 295.504 991.704C295.504 992.712 295.504 993.624 295.504 994.44H305.872V973.992H316.456V1005.31C316.456 1007.81 316.168 1009.82 315.592 1011.36C315.064 1012.9 314.224 1014.22 313.072 1015.32C312.016 1016.28 310.672 1017.02 309.04 1017.55C307.408 1018.13 305.44 1018.42 303.136 1018.42C298.672 1018.42 294.928 1017.05 291.904 1014.31C288.928 1011.62 286.888 1007.52 285.784 1002H267.856L264.112 997.824C264.688 997.008 265.24 996 265.768 994.8C266.296 993.552 266.56 992.088 266.56 990.408C266.56 988.44 266.032 986.784 264.976 985.44C263.92 984.096 262.312 983.424 260.152 983.424C257.944 983.424 256.288 984.096 255.184 985.44C254.128 986.736 253.6 988.368 253.6 990.336C253.6 992.304 253.936 993.936 254.608 995.232C255.328 996.528 256.072 997.728 256.84 998.832L248.632 1002.86C246.856 1000.9 245.488 998.88 244.528 996.816C243.568 994.752 243.088 992.4 243.088 989.76C243.088 986.976 243.808 984.552 245.248 982.488C246.688 980.424 248.68 978.816 251.224 977.664C253.768 976.512 256.72 975.936 260.08 975.936ZM305.872 1006.97V1002H295.936C296.416 1005.41 297.256 1007.78 298.456 1009.13C299.704 1010.47 301.168 1011.14 302.848 1011.14C303.904 1011.14 304.696 1010.81 305.224 1010.14C305.656 1009.56 305.872 1008.5 305.872 1006.97ZM379.998 968.232C373.23 968.232 367.758 969.144 363.582 970.968C359.406 972.792 356.526 975.312 354.942 978.528C355.998 978.048 357.126 977.688 358.326 977.448C359.526 977.16 360.798 977.016 362.142 977.016C366.27 977.016 369.438 978.144 371.646 980.4C373.902 982.656 375.03 985.68 375.03 989.472C375.03 993.648 373.734 996.936 371.142 999.336C368.598 1001.69 365.046 1002.86 360.486 1002.86C357.414 1002.86 354.606 1002.24 352.062 1000.99C349.566 999.744 347.574 997.824 346.086 995.232C344.598 992.592 343.854 989.232 343.854 985.152C343.854 979.44 345.39 974.784 348.462 971.184C351.582 967.584 355.854 964.944 361.278 963.264C366.75 961.536 373.014 960.672 380.07 960.672C383.622 960.672 386.67 960.816 389.214 961.104C391.758 961.392 394.134 961.848 396.342 962.472C398.118 961.896 399.99 961.464 401.958 961.176C403.974 960.84 406.038 960.672 408.15 960.672C411.51 960.672 414.342 960.984 416.646 961.608C418.95 962.232 420.918 963.096 422.55 964.2C424.23 965.256 425.766 966.48 427.158 967.872C429.174 965.568 431.718 963.792 434.79 962.544C437.862 961.296 441.414 960.672 445.446 960.672C451.158 960.672 455.43 961.776 458.262 963.984C461.094 966.192 462.51 968.88 462.51 972.048C462.51 974.256 462.03 976.152 461.07 977.736C460.11 979.32 458.454 980.688 456.102 981.84C458.502 982.752 460.302 984.048 461.502 985.728C462.702 987.408 463.302 989.376 463.302 991.632C463.302 995.136 462.078 997.896 459.63 999.912C457.182 1001.88 453.558 1002.86 448.758 1002.86C446.838 1002.86 445.206 1002.77 443.862 1002.58C442.518 1002.38 441.342 1002.19 440.334 1002L441.63 994.584C442.494 994.776 443.31 994.944 444.078 995.088C444.894 995.232 445.83 995.304 446.886 995.304C448.998 995.304 450.486 994.968 451.35 994.296C452.262 993.576 452.718 992.4 452.718 990.768C452.718 989.328 452.118 988.152 450.918 987.24C450.294 986.76 449.478 986.4 448.47 986.16C447.51 985.872 446.094 985.728 444.222 985.728H441.558V978.24H444.006C445.542 978.24 446.862 978.12 447.966 977.88C449.07 977.592 449.958 977.112 450.63 976.44C451.494 975.576 451.926 974.496 451.926 973.2C451.926 969.888 449.622 968.232 445.014 968.232C442.614 968.232 440.598 968.592 438.966 969.312C437.334 970.032 435.966 971.088 434.862 972.48C433.662 973.968 432.798 975.792 432.27 977.952C431.79 980.112 431.55 983.112 431.55 986.952V1002H420.894V984C420.894 980.352 420.606 977.52 420.03 975.504C419.502 973.44 418.422 971.76 416.79 970.464C415.734 969.648 414.582 969.048 413.334 968.664C412.086 968.232 410.574 967.992 408.798 967.944C411.342 969.96 412.614 972.36 412.614 975.144C412.614 976.92 412.182 978.456 411.318 979.752C410.454 981.048 409.014 982.224 406.998 983.28C408.966 984.144 410.526 985.32 411.678 986.808C412.83 988.248 413.406 990 413.406 992.064C413.406 993.984 412.902 995.76 411.894 997.392C410.886 999.024 409.23 1000.34 406.926 1001.35C404.622 1002.36 401.478 1002.86 397.494 1002.86C393.03 1002.86 389.406 1002.07 386.622 1000.49C383.838 998.856 381.798 996.696 380.502 994.008C379.254 991.272 378.63 988.224 378.63 984.864C378.63 981.744 379.206 978.792 380.358 976.008C381.558 973.176 383.43 970.632 385.974 968.376C385.014 968.328 384.03 968.304 383.022 968.304C382.014 968.256 381.006 968.232 379.998 968.232ZM388.566 984.72C388.566 988.56 389.286 991.32 390.726 993C392.214 994.632 394.35 995.448 397.134 995.448C401.166 995.448 403.182 994.08 403.182 991.344C403.182 990.096 402.63 989.112 401.526 988.392C400.47 987.672 398.814 987.312 396.558 987.312H394.542V979.824H395.91C398.31 979.824 399.99 979.416 400.95 978.6C401.91 977.736 402.39 976.632 402.39 975.288C402.39 972.744 400.734 970.968 397.422 969.96C395.262 970.968 393.534 972.336 392.238 974.064C390.942 975.744 390.006 977.52 389.43 979.392C388.854 981.264 388.566 983.04 388.566 984.72ZM359.622 984.216C357.558 984.216 355.542 984.888 353.574 986.232C353.766 989.784 354.462 992.256 355.662 993.648C356.862 994.992 358.35 995.664 360.126 995.664C361.614 995.664 362.766 995.184 363.582 994.224C364.398 993.264 364.806 991.872 364.806 990.048C364.806 988.224 364.374 986.808 363.51 985.8C362.646 984.744 361.35 984.216 359.622 984.216ZM485.015 1002.86C482.087 1002.86 479.351 1002.24 476.807 1000.99C474.311 999.696 472.271 997.704 470.687 995.016C469.151 992.328 468.383 988.824 468.383 984.504C468.383 979.8 469.511 975.672 471.767 972.12C474.023 968.52 477.191 965.712 481.271 963.696C485.399 961.68 490.271 960.672 495.887 960.672C501.263 960.672 505.727 961.608 509.279 963.48C512.831 965.352 515.471 967.896 517.199 971.112C518.975 974.28 519.863 977.856 519.863 981.84C519.863 985.056 519.383 987.936 518.423 990.48C517.463 992.976 516.143 995.232 514.463 997.248C512.783 999.216 510.839 1001.09 508.631 1002.86L501.719 997.392C503.159 995.952 504.431 994.512 505.535 993.072C506.639 991.584 507.503 989.952 508.127 988.176C508.751 986.4 509.063 984.312 509.063 981.912C509.063 977.88 507.863 974.616 505.463 972.12C503.063 969.624 499.511 968.376 494.807 968.376C490.967 968.376 487.679 969.336 484.943 971.256C482.255 973.128 480.335 975.576 479.183 978.6C480.239 978.12 481.367 977.736 482.567 977.448C483.815 977.16 485.135 977.016 486.527 977.016C490.703 977.016 493.895 978.144 496.103 980.4C498.359 982.656 499.487 985.68 499.487 989.472C499.487 993.648 498.215 996.936 495.671 999.336C493.127 1001.69 489.575 1002.86 485.015 1002.86ZM484.079 984.216C482.063 984.216 480.071 984.888 478.103 986.232C478.295 989.784 478.991 992.256 480.191 993.648C481.391 994.992 482.855 995.664 484.583 995.664C487.703 995.664 489.263 993.792 489.263 990.048C489.263 988.224 488.831 986.808 487.967 985.8C487.151 984.744 485.855 984.216 484.079 984.216ZM545.211 960.672C547.371 960.672 549.195 960.864 550.683 961.248C552.171 961.584 553.491 962.136 554.643 962.904C555.843 963.624 557.043 964.56 558.243 965.712C560.019 963.984 561.987 962.712 564.147 961.896C566.307 961.08 568.899 960.672 571.923 960.672C576.051 960.672 579.555 961.536 582.435 963.264C585.315 964.992 587.523 967.344 589.059 970.32C590.595 973.296 591.363 976.68 591.363 980.472C591.363 985.08 590.499 989.184 588.771 992.784C587.043 996.384 584.523 999.744 581.211 1002.86L573.723 997.392C576.267 994.608 578.043 991.92 579.051 989.328C580.107 986.688 580.635 983.976 580.635 981.192C580.635 976.776 579.651 973.536 577.683 971.472C575.763 969.36 573.459 968.304 570.771 968.304C569.379 968.304 568.251 968.544 567.387 969.024C566.523 969.456 565.827 970.008 565.299 970.68C564.675 971.544 564.219 972.624 563.931 973.92C563.691 975.168 563.571 976.824 563.571 978.888V1002H552.987V978.744C552.987 976.584 552.867 974.904 552.627 973.704C552.387 972.504 551.955 971.472 551.331 970.608C550.851 969.936 550.155 969.384 549.243 968.952C548.379 968.52 547.227 968.304 545.787 968.304C544.155 968.304 542.571 968.736 541.035 969.6C539.547 970.464 538.323 971.832 537.363 973.704C536.403 975.528 535.923 977.904 535.923 980.832C535.923 983.76 536.451 986.568 537.507 989.256C538.563 991.896 540.339 994.608 542.835 997.392L535.347 1002.86C532.083 999.696 529.563 996.36 527.787 992.856C526.059 989.352 525.195 985.32 525.195 980.76C525.195 976.92 525.963 973.488 527.499 970.464C529.083 967.44 531.363 965.064 534.339 963.336C537.315 961.56 540.939 960.672 545.211 960.672ZM650.209 960.672C655.537 960.672 659.761 961.2 662.881 962.256C666.049 963.264 668.305 964.656 669.649 966.432C671.041 968.208 671.737 970.248 671.737 972.552C671.737 974.52 671.233 976.296 670.225 977.88C669.217 979.464 667.561 980.784 665.257 981.84C667.705 982.752 669.529 984.048 670.729 985.728C671.929 987.408 672.529 989.376 672.529 991.632C672.529 995.136 671.305 997.896 668.857 999.912C666.409 1001.88 662.785 1002.86 657.985 1002.86C656.065 1002.86 654.433 1002.77 653.089 1002.58C651.793 1002.38 650.617 1002.19 649.561 1002L650.857 994.584C651.529 994.776 652.297 994.944 653.161 995.088C654.073 995.232 655.057 995.304 656.113 995.304C658.225 995.304 659.713 994.968 660.577 994.296C661.489 993.576 661.945 992.4 661.945 990.768C661.945 989.328 661.345 988.152 660.145 987.24C659.521 986.76 658.681 986.4 657.625 986.16C656.617 985.872 655.081 985.728 653.017 985.728H651.649V978.24H652.873C654.937 978.24 656.449 978.12 657.409 977.88C658.369 977.592 659.209 977.136 659.929 976.512C660.697 975.744 661.081 974.784 661.081 973.632C661.081 971.904 660.193 970.608 658.417 969.744C656.641 968.832 653.665 968.376 649.489 968.376C646.225 968.376 643.153 968.76 640.273 969.528C637.393 970.248 634.873 971.376 632.713 972.912C630.601 974.4 629.065 976.296 628.105 978.6C629.161 978.12 630.289 977.736 631.489 977.448C632.737 977.16 634.057 977.016 635.449 977.016C639.625 977.016 642.817 978.144 645.025 980.4C647.281 982.656 648.409 985.68 648.409 989.472C648.409 993.648 647.137 996.936 644.593 999.336C642.049 1001.69 638.473 1002.86 633.865 1002.86C630.889 1002.86 628.129 1002.24 625.585 1000.99C623.089 999.696 621.073 997.728 619.537 995.088C618.049 992.4 617.305 988.992 617.305 984.864C617.305 979.68 618.697 975.288 621.481 971.688C624.265 968.088 628.129 965.352 633.073 963.48C638.017 961.608 643.729 960.672 650.209 960.672ZM633.001 984.216C630.985 984.216 628.993 984.888 627.025 986.232C627.169 989.784 627.841 992.256 629.041 993.648C630.289 994.992 631.777 995.664 633.505 995.664C636.625 995.664 638.185 993.768 638.185 989.976C638.185 988.152 637.753 986.736 636.889 985.728C636.073 984.72 634.777 984.216 633.001 984.216ZM703.626 960.672C707.274 960.672 710.394 961.104 712.986 961.968C715.626 962.832 718.002 964.128 720.114 965.856C721.746 964.08 723.666 962.784 725.874 961.968C728.13 961.104 730.602 960.672 733.29 960.672C736.65 960.672 739.338 961.2 741.354 962.256C743.418 963.264 745.314 964.68 747.042 966.504C749.01 964.776 751.362 963.384 754.098 962.328C756.882 961.224 760.578 960.672 765.186 960.672C768.642 960.672 771.786 961.056 774.618 961.824C775.626 960.864 776.394 959.928 776.922 959.016C777.45 958.104 777.714 957.096 777.714 955.992C777.714 954.744 777.33 953.76 776.562 953.04C775.842 952.32 774.594 951.96 772.818 951.96C771.906 951.96 771.042 952.032 770.226 952.176C769.41 952.32 768.738 952.464 768.21 952.608L766.338 945.696C767.49 945.312 768.978 945 770.802 944.76C772.626 944.52 774.498 944.4 776.418 944.4C779.586 944.4 782.01 944.904 783.69 945.912C785.418 946.92 786.594 948.168 787.218 949.656C787.89 951.144 788.226 952.632 788.226 954.12C788.226 956.232 787.746 958.224 786.786 960.096C785.874 961.92 784.506 963.744 782.682 965.568C786.09 967.872 788.658 970.776 790.386 974.28C792.114 977.784 792.978 981.432 792.978 985.224C792.978 990.792 791.538 995.136 788.658 998.256C785.778 1001.33 781.506 1002.86 775.842 1002.86C770.418 1002.86 766.29 1001.38 763.458 998.4C760.626 995.376 759.21 991.128 759.21 985.656C759.21 983.064 759.81 980.328 761.01 977.448C762.258 974.52 764.658 971.448 768.21 968.232C767.394 968.136 766.458 968.088 765.402 968.088C763.53 968.088 761.826 968.28 760.29 968.664C758.754 969 757.362 969.624 756.114 970.536C755.25 971.208 754.482 972.072 753.81 973.128C753.138 974.184 752.61 975.6 752.226 977.376C751.842 979.104 751.65 981.384 751.65 984.216V1002H741.066V979.608C741.066 977.208 740.922 975.312 740.634 973.92C740.346 972.48 739.794 971.304 738.978 970.392C738.402 969.72 737.634 969.216 736.674 968.88C735.762 968.496 734.634 968.304 733.29 968.304C732.09 968.304 731.01 968.52 730.05 968.952C729.138 969.336 728.346 969.888 727.674 970.608C726.906 971.52 726.354 972.672 726.018 974.064C725.682 975.408 725.514 977.496 725.514 980.328V1002H714.93V982.704C714.93 979.008 714.642 976.32 714.066 974.64C713.49 972.96 712.698 971.688 711.69 970.824C710.778 970.008 709.698 969.384 708.45 968.952C707.202 968.52 705.522 968.304 703.41 968.304C699.762 968.304 696.546 969.192 693.762 970.968C691.026 972.696 689.154 975.288 688.146 978.744C689.25 978.216 690.45 977.808 691.746 977.52C693.042 977.184 694.41 977.016 695.85 977.016C699.978 977.016 703.146 978.144 705.354 980.4C707.562 982.656 708.666 985.68 708.666 989.472C708.666 993.648 707.394 996.936 704.85 999.336C702.306 1001.69 698.73 1002.86 694.122 1002.86C691.242 1002.86 688.53 1002.24 685.986 1000.99C683.49 999.744 681.45 997.776 679.866 995.088C678.33 992.4 677.562 988.896 677.562 984.576C677.562 979.392 678.714 975.024 681.018 971.472C683.322 967.92 686.442 965.232 690.378 963.408C694.362 961.584 698.778 960.672 703.626 960.672ZM769.794 986.016C769.794 988.896 770.274 991.176 771.234 992.856C772.242 994.488 773.826 995.304 775.986 995.304C778.05 995.304 779.586 994.56 780.594 993.072C781.65 991.584 782.178 989.16 782.178 985.8C782.178 983.256 781.674 980.688 780.666 978.096C779.706 975.504 778.17 973.32 776.058 971.544C773.802 973.8 772.194 976.224 771.234 978.816C770.274 981.36 769.794 983.76 769.794 986.016ZM693.258 984.216C691.242 984.216 689.25 984.888 687.282 986.232C687.426 989.736 688.098 992.184 689.298 993.576C690.546 994.968 692.034 995.664 693.762 995.664C696.882 995.664 698.442 993.768 698.442 989.976C698.442 988.152 698.01 986.736 697.146 985.728C696.33 984.72 695.034 984.216 693.258 984.216ZM817.873 961.536C815.569 966.48 813.769 971.016 812.473 975.144C811.177 979.272 810.265 983.088 809.737 986.592C809.257 990.096 809.017 993.456 809.017 996.672C809.017 999.84 809.377 1002.26 810.097 1003.94C810.817 1005.62 811.825 1006.78 813.121 1007.4C814.417 1008.07 815.881 1008.41 817.513 1008.41C818.905 1008.41 820.249 1008.31 821.545 1008.12L822.481 1015.68C821.569 1015.92 820.609 1016.06 819.601 1016.11C818.593 1016.21 817.561 1016.26 816.505 1016.26C810.169 1016.26 805.561 1014.53 802.681 1011.07C799.849 1007.62 798.433 1002.89 798.433 996.888C798.433 992.904 798.721 989.088 799.297 985.44C799.921 981.792 800.857 978.048 802.105 974.208C803.353 970.32 804.937 966.096 806.857 961.536H817.873ZM839.012 960.672C843.572 960.672 847.676 961.152 851.324 962.112C854.972 963.072 857.996 964.2 860.396 965.496L856.076 972.336C853.628 971.088 851.132 970.128 848.588 969.456C846.092 968.784 843.14 968.448 839.732 968.448C836.516 968.448 834.188 968.904 832.748 969.816C831.308 970.68 830.588 971.784 830.588 973.128C830.588 974.328 830.972 975.288 831.74 976.008C832.508 976.68 833.54 977.112 834.836 977.304C836.18 977.496 837.884 977.592 839.948 977.592H841.964C846.188 977.592 849.5 978.024 851.9 978.888C854.3 979.704 856.172 980.928 857.516 982.56C858.332 983.52 858.908 984.624 859.244 985.872C859.628 987.12 859.82 988.512 859.82 990.048C859.82 993.84 858.212 996.936 854.996 999.336C851.828 1001.69 846.932 1002.86 840.308 1002.86C835.892 1002.86 831.956 1002.43 828.5 1001.57C825.044 1000.66 821.828 999.408 818.852 997.824L823.028 990.84C825.572 992.184 828.116 993.24 830.66 994.008C833.252 994.728 836.228 995.088 839.588 995.088C842.996 995.088 845.42 994.632 846.86 993.72C848.348 992.76 849.092 991.512 849.092 989.976C849.092 989.304 848.972 988.68 848.732 988.104C848.492 987.528 848.06 987.048 847.436 986.664C846.812 986.232 845.996 985.92 844.988 985.728C843.98 985.488 842.324 985.368 840.02 985.368H838.652C834.764 985.368 831.428 985.008 828.644 984.288C825.86 983.52 823.748 982.296 822.308 980.616C821.54 979.704 820.94 978.648 820.508 977.448C820.076 976.248 819.86 974.88 819.86 973.344C819.86 969.744 821.42 966.744 824.54 964.344C827.66 961.896 832.484 960.672 839.012 960.672ZM900.594 981.624C900.594 984.456 900.282 987.144 899.658 989.688C899.082 992.232 898.074 994.512 896.634 996.528C895.194 998.496 893.25 1000.06 890.802 1001.21C888.354 1002.31 885.258 1002.86 881.514 1002.86C878.346 1002.86 875.682 1002.43 873.522 1001.57C871.362 1000.7 869.586 999.6 868.194 998.256C866.85 996.864 865.794 995.352 865.026 993.72C864.306 992.04 863.754 990.408 863.37 988.824L874.17 987.024C874.506 988.224 874.914 989.472 875.394 990.768C875.922 992.064 876.666 993.168 877.626 994.08C878.634 994.944 879.978 995.376 881.658 995.376C884.538 995.376 886.578 994.128 887.778 991.632C889.026 989.088 889.65 985.8 889.65 981.768C889.65 977.736 889.026 974.472 887.778 971.976C886.578 969.432 884.61 968.16 881.874 968.16C880.338 968.16 879.066 968.592 878.058 969.456C877.05 970.272 876.258 971.304 875.682 972.552C875.106 973.8 874.674 975.096 874.386 976.44L863.586 974.568C864.114 972.936 864.81 971.304 865.674 969.672C866.538 968.04 867.666 966.552 869.058 965.208C870.498 963.816 872.298 962.712 874.458 961.896C876.618 961.08 879.234 960.672 882.306 960.672C885.81 960.672 888.738 961.248 891.09 962.4C893.442 963.504 895.314 965.04 896.706 967.008C898.098 968.928 899.082 971.16 899.658 973.704C900.282 976.2 900.594 978.84 900.594 981.624ZM925.66 953.76C931.324 953.76 935.812 954.84 939.124 957C942.484 959.16 944.164 962.424 944.164 966.792C944.164 974.856 939.604 979.392 930.484 980.4L929.764 986.592H919.252L918.604 975.648C923.02 975.312 926.188 974.568 928.108 973.416C930.028 972.216 930.988 970.632 930.988 968.664C930.988 967.08 930.46 965.856 929.404 964.992C928.396 964.128 926.86 963.696 924.796 963.696C922.684 963.696 921.004 964.32 919.756 965.568C918.508 966.768 917.788 968.568 917.596 970.968L905.788 966.432C906.364 962.592 908.26 959.52 911.476 957.216C914.74 954.912 919.468 953.76 925.66 953.76ZM924.58 990.408C926.74 990.408 928.42 990.936 929.62 991.992C930.868 993.048 931.492 994.536 931.492 996.456C931.492 998.376 930.868 999.888 929.62 1000.99C928.42 1002.05 926.74 1002.58 924.58 1002.58C922.372 1002.58 920.644 1002.05 919.396 1000.99C918.196 999.888 917.596 998.376 917.596 996.456C917.596 994.536 918.196 993.048 919.396 991.992C920.644 990.936 922.372 990.408 924.58 990.408Z" fill="#06092D"/>
<rect x="154" y="1501" width="1041" height="179" rx="20" fill="#D2D2D7"/>
<path d="M219.829 1615.84C216.971 1615.84 214.302 1615.23 211.819 1614.02C209.384 1612.75 207.393 1610.81 205.848 1608.19C204.349 1605.56 203.599 1602.14 203.599 1597.93C203.599 1593.34 204.7 1589.31 206.901 1585.84C209.103 1582.33 212.194 1579.59 216.175 1577.62C220.203 1575.66 224.957 1574.67 230.437 1574.67C235.683 1574.67 240.039 1575.59 243.505 1577.41C246.971 1579.24 249.547 1581.72 251.233 1584.86C252.966 1587.95 253.832 1591.44 253.832 1595.33C253.832 1598.47 253.364 1601.28 252.427 1603.76C251.491 1606.19 250.202 1608.4 248.563 1610.36C246.924 1612.28 245.027 1614.11 242.872 1615.84L236.128 1610.5C237.533 1609.1 238.774 1607.69 239.851 1606.29C240.929 1604.84 241.772 1603.24 242.381 1601.51C242.99 1599.78 243.294 1597.74 243.294 1595.4C243.294 1591.46 242.123 1588.28 239.781 1585.84C237.439 1583.41 233.973 1582.19 229.383 1582.19C225.636 1582.19 222.428 1583.13 219.758 1585C217.135 1586.83 215.262 1589.22 214.138 1592.17C215.168 1591.7 216.269 1591.32 217.44 1591.04C218.658 1590.76 219.946 1590.62 221.304 1590.62C225.379 1590.62 228.493 1591.72 230.648 1593.92C232.849 1596.12 233.95 1599.08 233.95 1602.78C233.95 1606.85 232.709 1610.06 230.226 1612.4C227.744 1614.7 224.278 1615.84 219.829 1615.84ZM218.915 1597.65C216.948 1597.65 215.004 1598.3 213.084 1599.61C213.271 1603.08 213.95 1605.49 215.121 1606.85C216.292 1608.16 217.721 1608.82 219.407 1608.82C222.451 1608.82 223.974 1606.99 223.974 1603.34C223.974 1601.56 223.552 1600.18 222.709 1599.19C221.913 1598.16 220.648 1597.65 218.915 1597.65ZM275.054 1589.57C278.848 1589.57 281.939 1590.25 284.328 1591.6C286.763 1592.92 288.543 1594.6 289.667 1596.66C290.838 1598.68 291.424 1600.78 291.424 1602.99C291.424 1603.83 291.33 1604.65 291.143 1605.45C291.002 1606.24 290.815 1606.97 290.581 1607.62H310.112V1575.52H320.439V1615H282.642L278.988 1610.93C279.55 1610.13 280.089 1609.15 280.604 1607.97C281.119 1606.76 281.377 1605.33 281.377 1603.69C281.377 1601.77 280.862 1600.15 279.831 1598.84C278.801 1597.53 277.232 1596.87 275.124 1596.87C272.97 1596.87 271.354 1597.53 270.277 1598.84C269.246 1600.11 268.731 1601.7 268.731 1603.62C268.731 1605.54 269.059 1607.13 269.715 1608.4C270.417 1609.66 271.143 1610.83 271.893 1611.91L263.883 1615.84C262.15 1613.92 260.816 1611.96 259.879 1609.94C258.942 1607.93 258.474 1605.63 258.474 1603.06C258.474 1600.34 259.176 1597.97 260.581 1595.96C261.986 1593.95 263.93 1592.38 266.413 1591.25C268.895 1590.13 271.775 1589.57 275.054 1589.57ZM362.567 1595.12C362.567 1597.88 362.263 1600.5 361.654 1602.99C361.092 1605.47 360.108 1607.69 358.703 1609.66C357.298 1611.58 355.401 1613.1 353.012 1614.23C350.623 1615.3 347.602 1615.84 343.949 1615.84C340.858 1615.84 338.258 1615.42 336.151 1614.58C334.043 1613.74 332.31 1612.66 330.952 1611.35C329.64 1609.99 328.61 1608.51 327.861 1606.92C327.158 1605.28 326.619 1603.69 326.245 1602.14L336.783 1600.39C337.111 1601.56 337.509 1602.78 337.977 1604.04C338.493 1605.3 339.219 1606.38 340.155 1607.27C341.139 1608.11 342.45 1608.54 344.09 1608.54C346.9 1608.54 348.891 1607.32 350.061 1604.88C351.279 1602.4 351.888 1599.19 351.888 1595.26C351.888 1591.32 351.279 1588.14 350.061 1585.7C348.891 1583.22 346.97 1581.98 344.3 1581.98C342.802 1581.98 341.56 1582.4 340.577 1583.24C339.593 1584.04 338.821 1585.05 338.258 1586.27C337.696 1587.48 337.275 1588.75 336.994 1590.06L326.455 1588.23C326.971 1586.64 327.65 1585.05 328.493 1583.46C329.336 1581.86 330.437 1580.41 331.795 1579.1C333.2 1577.74 334.956 1576.66 337.064 1575.87C339.172 1575.07 341.724 1574.67 344.722 1574.67C348.141 1574.67 350.998 1575.24 353.293 1576.36C355.588 1577.44 357.415 1578.94 358.773 1580.86C360.131 1582.73 361.092 1584.91 361.654 1587.39C362.263 1589.82 362.567 1592.4 362.567 1595.12ZM394.122 1582.05C390.937 1582.05 388.08 1582.33 385.551 1582.89C383.022 1583.41 380.984 1584.27 379.439 1585.49C380.891 1585.07 382.249 1584.86 383.514 1584.86C386.324 1584.86 388.572 1585.33 390.258 1586.27C391.991 1587.2 393.256 1588.44 394.052 1589.99C394.848 1591.53 395.246 1593.22 395.246 1595.05C395.246 1597.01 394.778 1598.84 393.841 1600.53C392.904 1602.21 391.429 1603.57 389.415 1604.6C387.448 1605.63 384.872 1606.15 381.687 1606.15C379.017 1606.15 376.652 1605.59 374.591 1604.46C372.53 1603.34 370.914 1601.75 369.743 1599.68C368.573 1597.62 367.987 1595.19 367.987 1592.38C367.987 1589.29 368.924 1586.41 370.797 1583.74C372.671 1581.02 375.598 1578.84 379.579 1577.2C383.607 1575.52 388.83 1574.67 395.246 1574.67C402.787 1574.67 408.361 1575.68 411.967 1577.69C415.574 1579.66 417.377 1582.57 417.377 1586.41C417.377 1590.11 415.34 1592.89 411.265 1594.77C413.653 1595.89 415.386 1597.23 416.464 1598.77C417.541 1600.27 418.079 1602.03 418.079 1604.04C418.079 1605.73 417.775 1607.25 417.166 1608.61C416.557 1609.92 415.714 1611.04 414.637 1611.98C413.747 1612.73 412.717 1613.31 411.546 1613.74C410.422 1614.16 408.946 1614.48 407.12 1614.72C405.34 1614.91 403.021 1615 400.164 1615H386.816C384.802 1615 383.35 1615.05 382.46 1615.14C381.617 1615.28 380.961 1615.47 380.493 1615.7C379.415 1616.22 378.877 1617.04 378.877 1618.16C378.877 1619.29 379.298 1620.13 380.141 1620.69C380.657 1620.97 381.359 1621.18 382.249 1621.32C383.139 1621.51 384.591 1621.6 386.605 1621.6H416.674V1629.12H385.27C379.65 1629.12 375.528 1628.3 372.905 1626.66C369.954 1624.79 368.479 1622.1 368.479 1618.58C368.479 1616.8 368.854 1615.19 369.603 1613.74C370.352 1612.24 371.523 1611 373.116 1610.01C374.334 1609.26 375.832 1608.68 377.612 1608.26C379.439 1607.83 381.991 1607.62 385.27 1607.62H399.04C402.787 1607.62 405.176 1607.23 406.206 1606.43C407.237 1605.77 407.752 1604.72 407.752 1603.27C407.752 1601.67 407.143 1600.5 405.925 1599.75C405.457 1599.43 404.825 1599.19 404.028 1599.05C403.232 1598.91 402.061 1598.84 400.516 1598.84H399.743V1591.46H400.375C401.593 1591.46 402.6 1591.42 403.396 1591.32C404.192 1591.18 404.895 1590.9 405.504 1590.48C406.487 1589.82 406.979 1588.79 406.979 1587.39C406.979 1586.22 406.604 1585.26 405.855 1584.51C405.152 1583.71 403.864 1583.1 401.991 1582.68C400.117 1582.26 397.495 1582.05 394.122 1582.05ZM376.418 1593.29C376.418 1595.21 376.863 1596.76 377.753 1597.93C378.643 1599.05 379.884 1599.61 381.476 1599.61C382.975 1599.61 384.052 1599.19 384.708 1598.35C385.411 1597.46 385.762 1596.38 385.762 1595.12C385.762 1593.9 385.411 1592.89 384.708 1592.1C384.005 1591.25 382.928 1590.83 381.476 1590.83C380.493 1590.83 379.603 1590.93 378.806 1591.11C378.01 1591.3 377.237 1591.56 376.488 1591.89C376.441 1592.26 376.418 1592.73 376.418 1593.29ZM419.005 1555.21C423.174 1555.21 426.476 1556.03 428.912 1557.67C430.504 1558.7 431.745 1559.94 432.635 1561.39C433.572 1562.8 434.251 1564.65 434.672 1566.95C435.094 1569.19 435.305 1572.17 435.305 1575.87V1615H424.907V1577.48C424.907 1573.97 424.79 1571.21 424.556 1569.19C424.321 1567.18 423.853 1565.68 423.151 1564.7C422.682 1564.04 422.12 1563.53 421.464 1563.15C420.809 1562.78 419.942 1562.59 418.865 1562.59C417.647 1562.59 416.546 1562.99 415.563 1563.78C414.579 1564.58 414.088 1565.82 414.088 1567.51C414.088 1568.4 414.205 1569.24 414.439 1570.04L404.322 1571.23C403.947 1570.01 403.76 1568.75 403.76 1567.44C403.76 1564.72 404.439 1562.47 405.797 1560.69C407.109 1558.87 408.912 1557.51 411.207 1556.62C413.502 1555.68 416.102 1555.21 419.005 1555.21Z" fill="#06092D"/>
<rect x="466" y="1544" width="13" height="92" fill="#06092D"/>
</g>
<rect x="256" y="1720" width="107" height="135" rx="20" fill="#E5E6E8"/>
<path d="M319.656 1817.04C323.544 1817.04 326.496 1816.1 328.512 1814.23L331.464 1823.23C330.216 1824.34 328.536 1825.18 326.424 1825.75C324.312 1826.38 321.912 1826.69 319.224 1826.69C314.472 1826.69 310.8 1825.54 308.208 1823.23C305.616 1820.98 304.32 1817.86 304.32 1813.87L304.392 1812.43C298.392 1811.62 293.688 1809.1 290.28 1804.87C286.92 1800.65 285.24 1795.1 285.24 1788.24C285.24 1783.15 286.176 1778.78 288.048 1775.14C289.92 1771.44 292.608 1768.63 296.112 1766.71C299.616 1764.74 303.768 1763.76 308.568 1763.76C313.368 1763.76 317.496 1764.74 320.952 1766.71C324.456 1768.63 327.144 1771.44 329.016 1775.14C330.888 1778.78 331.824 1783.15 331.824 1788.24C331.824 1795.2 330.096 1800.79 326.64 1805.02C323.232 1809.24 318.48 1811.74 312.384 1812.5C312.576 1814.18 313.272 1815.36 314.472 1816.03C315.72 1816.7 317.448 1817.04 319.656 1817.04ZM297.912 1788.24C297.912 1793.09 298.824 1796.76 300.648 1799.26C302.472 1801.75 305.112 1803 308.568 1803C312.024 1803 314.64 1801.75 316.416 1799.26C318.24 1796.76 319.152 1793.09 319.152 1788.24C319.152 1783.39 318.24 1779.72 316.416 1777.22C314.64 1774.73 312.024 1773.48 308.568 1773.48C305.112 1773.48 302.472 1774.73 300.648 1777.22C298.824 1779.72 297.912 1783.39 297.912 1788.24Z" fill="#06092D"/>
<rect x="402" y="1720" width="107" height="135" rx="20" fill="#E5E6E8"/>
<path d="M447.296 1812H433.4L419.72 1764.48H433.04L440.888 1802.28L449.456 1764.48H460.688L469.4 1802.21L477.248 1764.48H490.064L476.312 1812H462.848L457.232 1788.96L455.072 1777.37H454.928L452.84 1788.96L447.296 1812Z" fill="#06092D"/>
<rect x="548" y="1720" width="107" height="135" rx="20" fill="#E5E6E8"/>
<path d="M621.2 1802.42V1812H583.256V1764.48H620.264V1774.06H595.64V1783.7H615.224V1792.7H595.64V1802.42H621.2Z" fill="#06092D"/>
<rect x="694" y="1720" width="107" height="135" rx="20" fill="#E5E6E8"/>
<path d="M746.84 1794.65H739.424V1812H727.256V1764.48H749.936C755.696 1764.48 760.112 1765.78 763.184 1768.37C766.304 1770.96 767.864 1774.7 767.864 1779.6C767.864 1783.06 767.072 1785.94 765.488 1788.24C763.904 1790.54 761.6 1792.25 758.576 1793.35L770.672 1812H756.992L746.84 1794.65ZM739.424 1785.86H747.848C750.488 1785.86 752.408 1785.38 753.608 1784.42C754.808 1783.46 755.408 1781.93 755.408 1779.82C755.408 1777.75 754.808 1776.24 753.608 1775.28C752.408 1774.32 750.488 1773.84 747.848 1773.84H739.424V1785.86Z" fill="#06092D"/>
<rect x="840" y="1720" width="107" height="135" rx="20" fill="#E5E6E8"/>
<path d="M914.216 1774.06H898.736V1812H886.352V1774.06H870.8V1764.48H914.216V1774.06Z" fill="#06092D"/>
<rect x="986" y="1720" width="107" height="135" rx="20" fill="#E5E6E8"/>
<path d="M1044.81 1794.65V1812H1032.42V1794.65L1015.65 1764.48H1028.46L1035.16 1777.51L1038.69 1785.43L1042.29 1777.51L1048.98 1764.48H1061.58L1044.81 1794.65Z" fill="#06092D"/>
<rect x="501" y="151" width="280" height="42" rx="21" fill="#060928"/>
<rect x="807" y="151" width="42" height="42" rx="21" fill="#060928"/>
<defs>
<linearGradient id="paint0_linear" x1="675.5" y1="75" x2="675.5" y2="1888" gradientUnits="userSpaceOnUse">
<stop stop-color="#212558"/>
<stop offset="1" stop-color="#131639"/>
</linearGradient>
<linearGradient id="paint1_linear" x1="138.5" y1="1357.5" x2="274.643" y2="1357.5" gradientUnits="userSpaceOnUse">
<stop stop-color="#DFDFDF"/>
<stop offset="1" stop-color="#DFDFDF" stop-opacity="0"/>
</linearGradient>
<linearGradient id="paint2_linear" x1="243" y1="21.5" x2="370.98" y2="21.5" gradientUnits="userSpaceOnUse">
<stop stop-color="#DFDFDF"/>
<stop offset="1" stop-color="#DFDFDF" stop-opacity="0"/>
</linearGradient>
</defs>
</svg>
