<svg width="884" height="678" viewBox="0 0 884 678" fill="none" xmlns="http://www.w3.org/2000/svg">
<path d="M363 465.5V545.5" stroke="#DFDFDF" stroke-width="6"/>
<path d="M528 465.5V545.5" stroke="#DFDFDF" stroke-width="6"/>
<path d="M191.261 223.282C194.681 223.282 197.588 223.757 199.982 224.707C202.414 225.619 204.371 226.873 205.853 228.469C207.373 230.065 208.475 231.87 209.159 233.884C209.881 235.86 210.242 237.912 210.242 240.04C210.242 243.802 209.425 246.994 207.791 249.616C206.157 252.2 204.01 254.556 201.35 256.684L195.764 252.352C197.474 250.642 198.861 248.875 199.925 247.051C201.027 245.227 201.578 242.909 201.578 240.097C201.578 237.969 201.141 236.107 200.267 234.511C199.393 232.877 198.177 231.623 196.619 230.749C195.099 229.837 193.332 229.381 191.318 229.381C188.126 229.381 185.561 230.35 183.623 232.288C181.723 234.226 180.773 236.791 180.773 239.983C180.773 242.643 181.248 244.904 182.198 246.766C183.186 248.628 184.649 250.49 186.587 252.352L180.887 256.684C178.341 254.594 176.232 252.238 174.56 249.616C172.926 246.994 172.109 243.783 172.109 239.983C172.109 237.931 172.47 235.917 173.192 233.941C173.914 231.965 175.035 230.179 176.555 228.583C178.113 226.949 180.108 225.657 182.54 224.707C184.972 223.757 187.879 223.282 191.261 223.282ZM211.163 207.493C214.545 207.493 217.224 208.158 219.2 209.488C220.492 210.324 221.499 211.331 222.221 212.509C222.981 213.649 223.532 215.15 223.874 217.012C224.216 218.836 224.387 221.249 224.387 224.251V256H215.951V225.562C215.951 222.712 215.856 220.47 215.666 218.836C215.476 217.202 215.096 215.986 214.526 215.188C214.146 214.656 213.69 214.238 213.158 213.934C212.626 213.63 211.923 213.478 211.049 213.478C210.061 213.478 209.168 213.801 208.37 214.447C207.572 215.093 207.173 216.1 207.173 217.468C207.173 218.19 207.268 218.874 207.458 219.52L199.25 220.489C198.946 219.501 198.794 218.475 198.794 217.411C198.794 215.207 199.345 213.383 200.447 211.939C201.511 210.457 202.974 209.355 204.836 208.633C206.698 207.873 208.807 207.493 211.163 207.493ZM282.266 223.966V272.188H250.004L247.097 266.716L257.357 259.363C258.231 258.755 259.105 258.147 259.979 257.539C260.891 256.969 261.803 256.418 262.715 255.886C261.613 255.924 260.53 255.962 259.466 256C258.402 256 257.338 256 256.274 256H229.142V250.015H252.17C252.778 249.445 253.272 248.742 253.652 247.906C254.07 247.032 254.279 246.044 254.279 244.942C254.279 243.422 253.937 242.206 253.253 241.294C252.569 240.382 251.467 239.926 249.947 239.926C248.389 239.926 247.23 240.382 246.47 241.294C245.71 242.206 245.33 243.441 245.33 244.999C245.33 245.379 245.33 245.702 245.33 245.968C245.368 246.234 245.406 246.5 245.444 246.766L237.35 247.393C237.312 246.975 237.255 246.462 237.179 245.854C237.103 245.246 237.065 244.695 237.065 244.201C237.065 241.047 238.167 238.558 240.371 236.734C242.575 234.91 245.767 233.998 249.947 233.998C252.417 233.998 254.45 234.321 256.046 234.967C257.68 235.575 258.953 236.373 259.865 237.361C260.815 238.349 261.48 239.451 261.86 240.667C262.24 241.845 262.43 243.004 262.43 244.144C262.43 245.322 262.24 246.386 261.86 247.336C261.518 248.286 261.062 249.179 260.492 250.015H273.887V223.966H282.266ZM260.834 264.094C260.226 264.512 259.599 264.93 258.953 265.348C258.345 265.804 257.737 266.222 257.129 266.602C257.965 266.564 258.877 266.526 259.865 266.488C260.853 266.488 261.936 266.488 263.114 266.488H274.058V256H272.12L260.834 264.094ZM297.75 269.395C294.064 269.395 291.138 268.426 288.972 266.488C286.844 264.55 285.78 262.061 285.78 259.021C285.78 256.475 286.559 254.328 288.117 252.58C289.713 250.794 291.803 249.616 294.387 249.046C295.261 246.234 295.945 243.631 296.439 241.237C296.933 238.805 297.18 236.601 297.18 234.625C297.18 233.143 296.914 231.908 296.382 230.92C295.85 229.894 294.843 229.381 293.361 229.381C292.183 229.381 291.138 229.514 290.226 229.78L288.972 224.023C289.846 223.833 290.815 223.662 291.879 223.51C292.981 223.358 294.254 223.282 295.698 223.282C298.206 223.282 300.182 223.738 301.626 224.65C303.108 225.524 304.153 226.702 304.761 228.184C305.369 229.628 305.673 231.205 305.673 232.915C305.673 235.689 305.35 238.368 304.704 240.952C304.058 243.536 303.279 246.329 302.367 249.331C304.609 250.053 306.395 251.25 307.725 252.922C309.055 254.594 309.72 256.627 309.72 259.021C309.72 261.111 309.207 262.935 308.181 264.493C307.155 266.051 305.749 267.248 303.963 268.084C302.177 268.958 300.106 269.395 297.75 269.395ZM297.75 263.923C299.08 263.923 300.182 263.505 301.056 262.669C301.968 261.871 302.424 260.655 302.424 259.021C302.424 257.425 301.987 256.228 301.113 255.43C300.239 254.594 299.099 254.176 297.693 254.176C296.401 254.176 295.299 254.594 294.387 255.43C293.513 256.228 293.076 257.444 293.076 259.078C293.076 260.636 293.513 261.833 294.387 262.669C295.299 263.505 296.42 263.923 297.75 263.923Z" fill="#FABC02"/>
<path d="M363.415 172.366C366.493 172.366 369.001 172.917 370.939 174.019C372.915 175.083 374.359 176.451 375.271 178.123C376.221 179.757 376.696 181.467 376.696 183.253C376.696 183.937 376.62 184.602 376.468 185.248C376.354 185.894 376.202 186.483 376.012 187.015H383.08C383.042 186.293 383.023 185.571 383.023 184.849C383.023 181.391 383.46 178.18 384.334 175.216C385.208 172.252 386.538 169.649 388.324 167.407C390.11 165.165 392.352 163.417 395.05 162.163C397.786 160.909 400.997 160.282 404.683 160.282C411.599 160.282 416.786 162.334 420.244 166.438C423.702 170.542 425.431 176.223 425.431 183.481C425.431 188.079 424.671 192.183 423.151 195.793C421.669 199.403 419.636 202.804 417.052 205.996L410.782 202.177C412.91 199.365 414.43 196.42 415.342 193.342C416.254 190.302 416.71 186.996 416.71 183.424C416.71 181.144 416.501 178.978 416.083 176.926C415.665 174.836 414.981 172.993 414.031 171.397C413.081 169.801 411.827 168.547 410.269 167.635C408.749 166.685 406.849 166.21 404.569 166.21C401.605 166.21 399.154 167.008 397.216 168.604C395.278 170.162 393.834 172.347 392.884 175.159C391.934 177.933 391.459 181.163 391.459 184.849C391.459 185.647 391.459 186.369 391.459 187.015H399.667V170.827H408.046V195.622C408.046 197.598 407.818 199.194 407.362 200.41C406.944 201.626 406.279 202.671 405.367 203.545C404.531 204.305 403.467 204.894 402.175 205.312C400.883 205.768 399.325 205.996 397.501 205.996C393.967 205.996 391.003 204.913 388.609 202.747C386.253 200.619 384.638 197.37 383.764 193H369.571L366.607 189.694C367.063 189.048 367.5 188.25 367.918 187.3C368.336 186.312 368.545 185.153 368.545 183.823C368.545 182.265 368.127 180.954 367.291 179.89C366.455 178.826 365.182 178.294 363.472 178.294C361.724 178.294 360.413 178.826 359.539 179.89C358.703 180.916 358.285 182.208 358.285 183.766C358.285 185.324 358.551 186.616 359.083 187.642C359.653 188.668 360.242 189.618 360.85 190.492L354.352 193.684C352.946 192.126 351.863 190.53 351.103 188.896C350.343 187.262 349.963 185.4 349.963 183.31C349.963 181.106 350.533 179.187 351.673 177.553C352.813 175.919 354.39 174.646 356.404 173.734C358.418 172.822 360.755 172.366 363.415 172.366ZM399.667 196.933V193H391.801C392.181 195.698 392.846 197.579 393.796 198.643C394.784 199.707 395.943 200.239 397.273 200.239C398.109 200.239 398.736 199.973 399.154 199.441C399.496 198.985 399.667 198.149 399.667 196.933ZM469.693 193.684C467.907 193.684 466.311 193.57 464.905 193.342C463.537 193.152 462.131 192.791 460.687 192.259C457.951 193.209 454.816 193.684 451.282 193.684C446.646 193.684 442.732 192.886 439.54 191.29C436.348 189.656 433.935 187.376 432.301 184.45C430.705 181.486 429.907 178.009 429.907 174.019C429.907 171.321 430.439 168.946 431.503 166.894C432.567 164.804 434.163 163.189 436.291 162.049C438.457 160.871 441.136 160.282 444.328 160.282C445.886 160.282 447.368 160.472 448.774 160.852C450.218 161.194 451.529 161.745 452.707 162.505C453.923 161.669 455.253 161.099 456.697 160.795C458.141 160.453 459.585 160.282 461.029 160.282C465.361 160.282 468.743 161.422 471.175 163.702C473.645 165.944 474.88 169.383 474.88 174.019C474.88 176.907 474.291 179.51 473.113 181.828C471.973 184.146 470.434 186.141 468.496 187.813C468.876 187.851 469.256 187.87 469.636 187.87C473.474 187.87 476.533 186.768 478.813 184.564C481.131 182.36 482.29 179.187 482.29 175.045C482.29 173.221 482.024 171.397 481.492 169.573C480.96 167.749 480.029 165.925 478.699 164.101L485.083 160.282C487.059 162.562 488.503 164.937 489.415 167.407C490.365 169.877 490.84 172.404 490.84 174.988C490.84 177.42 490.479 179.757 489.757 181.999C489.035 184.203 487.857 186.198 486.223 187.984C484.589 189.732 482.404 191.119 479.668 192.145C476.97 193.171 473.645 193.684 469.693 193.684ZM455.386 174.076C455.386 176.66 455.861 178.978 456.811 181.03C457.761 183.044 459.072 184.659 460.744 185.875C462.302 184.811 463.632 183.253 464.734 181.201C465.836 179.149 466.387 176.755 466.387 174.019C466.387 172.081 466.121 170.561 465.589 169.459C465.057 168.319 464.373 167.502 463.537 167.008C462.739 166.514 461.884 166.267 460.972 166.267C459.3 166.267 457.951 166.894 456.925 168.148C455.899 169.402 455.386 171.378 455.386 174.076ZM438.343 174.076C438.343 176.812 438.875 179.225 439.939 181.315C441.041 183.367 442.599 184.982 444.613 186.16C446.627 187.3 449.021 187.87 451.795 187.87C452.175 187.87 452.555 187.87 452.935 187.87C450.731 185.856 449.173 183.652 448.261 181.258C447.387 178.864 446.95 176.451 446.95 174.019C446.95 172.765 447.045 171.644 447.235 170.656C447.463 169.63 447.748 168.699 448.09 167.863C447.026 166.799 445.753 166.267 444.271 166.267C442.333 166.267 440.851 166.989 439.825 168.433C438.837 169.839 438.343 171.72 438.343 174.076ZM524.158 193.684C519.826 193.684 516.539 192.506 514.297 190.15C512.055 187.756 510.934 184.393 510.934 180.061C510.934 178.009 511.409 175.843 512.359 173.563C513.347 171.245 515.247 168.813 518.059 166.267C517.413 166.191 516.672 166.153 515.836 166.153C511.922 166.153 508.92 167.122 506.83 169.06C504.74 170.998 503.695 173.639 503.695 176.983C503.695 179.643 504.17 181.904 505.12 183.766C506.108 185.628 507.571 187.49 509.509 189.352L503.923 193.684C502.213 192.278 500.693 190.796 499.363 189.238C498.071 187.642 497.045 185.856 496.285 183.88C495.525 181.866 495.145 179.567 495.145 176.983C495.145 174.779 495.525 172.689 496.285 170.713C497.083 168.699 498.299 166.913 499.933 165.355C501.567 163.797 503.676 162.562 506.26 161.65C508.844 160.738 511.96 160.282 515.608 160.282C518.382 160.282 520.89 160.586 523.132 161.194C523.93 160.434 524.538 159.693 524.956 158.971C525.374 158.249 525.583 157.451 525.583 156.577C525.583 155.589 525.279 154.81 524.671 154.24C524.101 153.67 523.113 153.385 521.707 153.385C521.023 153.385 520.339 153.442 519.655 153.556C519.009 153.67 518.477 153.784 518.059 153.898L516.577 148.426C517.489 148.122 518.667 147.875 520.111 147.685C521.555 147.495 523.037 147.4 524.557 147.4C527.065 147.4 528.984 147.799 530.314 148.597C531.682 149.395 532.613 150.383 533.107 151.561C533.639 152.739 533.905 153.917 533.905 155.095C533.905 156.767 533.525 158.344 532.765 159.826C532.043 161.27 530.96 162.714 529.516 164.158C532.214 166.02 534.247 168.357 535.615 171.169C536.983 173.943 537.667 176.812 537.667 179.776C537.667 184.184 536.527 187.604 534.247 190.036C531.967 192.468 528.604 193.684 524.158 193.684ZM519.313 180.346C519.313 182.626 519.693 184.431 520.453 185.761C521.251 187.053 522.524 187.699 524.272 187.699C525.868 187.699 527.065 187.11 527.863 185.932C528.699 184.754 529.117 182.835 529.117 180.175C529.117 178.161 528.718 176.128 527.92 174.076C527.16 172.024 525.944 170.295 524.272 168.889C522.486 170.675 521.213 172.594 520.453 174.646C519.693 176.66 519.313 178.56 519.313 180.346Z" fill="#FABC02"/>
<path d="M599.848 246.282C603.04 246.282 605.795 246.928 608.113 248.22C610.469 249.474 612.274 251.279 613.528 253.635C614.82 255.953 615.466 258.708 615.466 261.9C615.466 265.586 614.782 268.854 613.414 271.704C612.046 274.554 610.051 277.214 607.429 279.684L601.501 275.352C603.515 273.148 604.921 271.001 605.719 268.911C606.555 266.821 606.973 264.636 606.973 262.356C606.973 258.936 606.289 256.428 604.921 254.832C603.553 253.198 601.881 252.381 599.905 252.381C598.803 252.381 597.872 252.571 597.112 252.951C596.39 253.331 595.801 253.882 595.345 254.604C594.851 255.364 594.509 256.371 594.319 257.625C594.129 258.879 594.034 260.627 594.034 262.869V264.18C594.034 266.726 593.768 268.987 593.236 270.963C592.742 272.901 591.887 274.535 590.671 275.865C589.531 277.081 588.049 278.031 586.225 278.715C584.439 279.361 582.292 279.684 579.784 279.684C576.592 279.684 573.818 279.038 571.462 277.746C569.144 276.454 567.339 274.63 566.047 272.274C564.755 269.918 564.109 267.144 564.109 263.952C564.109 260.19 564.812 256.903 566.218 254.091C567.624 251.279 569.619 248.657 572.203 246.225L578.017 250.557C576.041 252.761 574.635 254.908 573.799 256.998C573.001 259.05 572.602 261.235 572.602 263.553C572.602 267.125 573.267 269.69 574.597 271.248C575.927 272.806 577.542 273.585 579.442 273.585C581.722 273.585 583.318 272.844 584.23 271.362C584.724 270.602 585.047 269.633 585.199 268.455C585.389 267.239 585.484 265.605 585.484 263.553V261.843C585.484 256.523 586.776 252.571 589.36 249.987C590.462 248.885 591.811 247.992 593.407 247.308C595.041 246.624 597.188 246.282 599.848 246.282ZM640.296 246.282C643.184 246.282 645.654 246.624 647.706 247.308C649.796 247.992 651.677 249.018 653.349 250.386C654.641 248.98 656.161 247.954 657.909 247.308C659.695 246.624 661.652 246.282 663.78 246.282C666.44 246.282 668.568 246.7 670.164 247.536C671.798 248.334 673.299 249.455 674.667 250.899C676.225 249.531 678.087 248.429 680.253 247.593C682.457 246.719 685.383 246.282 689.031 246.282C691.767 246.282 694.256 246.586 696.498 247.194C697.296 246.434 697.904 245.693 698.322 244.971C698.74 244.249 698.949 243.451 698.949 242.577C698.949 241.589 698.645 240.81 698.037 240.24C697.467 239.67 696.479 239.385 695.073 239.385C694.351 239.385 693.667 239.442 693.021 239.556C692.375 239.67 691.843 239.784 691.425 239.898L689.943 234.426C690.855 234.122 692.033 233.875 693.477 233.685C694.921 233.495 696.403 233.4 697.923 233.4C700.431 233.4 702.35 233.799 703.68 234.597C705.048 235.395 705.979 236.383 706.473 237.561C707.005 238.739 707.271 239.917 707.271 241.095C707.271 242.767 706.891 244.344 706.131 245.826C705.409 247.27 704.326 248.714 702.882 250.158C705.58 251.982 707.613 254.281 708.981 257.055C710.349 259.829 711.033 262.717 711.033 265.719C711.033 270.127 709.893 273.566 707.613 276.036C705.333 278.468 701.951 279.684 697.467 279.684C693.173 279.684 689.905 278.506 687.663 276.15C685.421 273.756 684.3 270.393 684.3 266.061C684.3 264.009 684.775 261.843 685.725 259.563C686.713 257.245 688.613 254.813 691.425 252.267C690.779 252.191 690.038 252.153 689.202 252.153C687.72 252.153 686.371 252.305 685.155 252.609C683.939 252.875 682.837 253.369 681.849 254.091C681.165 254.623 680.557 255.307 680.025 256.143C679.493 256.979 679.075 258.1 678.771 259.506C678.467 260.874 678.315 262.679 678.315 264.921V279H669.936V261.273C669.936 259.373 669.822 257.872 669.594 256.77C669.366 255.63 668.929 254.699 668.283 253.977C667.827 253.445 667.219 253.046 666.459 252.78C665.737 252.476 664.844 252.324 663.78 252.324C662.83 252.324 661.975 252.495 661.215 252.837C660.493 253.141 659.866 253.578 659.334 254.148C658.726 254.87 658.289 255.782 658.023 256.884C657.757 257.948 657.624 259.601 657.624 261.843V279H649.245V263.724C649.245 260.798 649.017 258.67 648.561 257.34C648.105 256.01 647.478 255.003 646.68 254.319C645.958 253.673 645.103 253.179 644.115 252.837C643.127 252.495 641.797 252.324 640.125 252.324C637.237 252.324 634.691 253.027 632.487 254.433C630.321 255.801 628.839 257.853 628.041 260.589C628.915 260.171 629.865 259.848 630.891 259.62C631.917 259.354 633 259.221 634.14 259.221C637.408 259.221 639.916 260.114 641.664 261.9C643.412 263.686 644.286 266.08 644.286 269.082C644.286 272.388 643.279 274.991 641.265 276.891C639.251 278.753 636.42 279.684 632.772 279.684C630.492 279.684 628.345 279.19 626.331 278.202C624.355 277.214 622.74 275.656 621.486 273.528C620.27 271.4 619.662 268.626 619.662 265.206C619.662 261.102 620.574 257.644 622.398 254.832C624.222 252.02 626.692 249.892 629.808 248.448C632.962 247.004 636.458 246.282 640.296 246.282ZM692.679 266.346C692.679 268.626 693.059 270.431 693.819 271.761C694.617 273.053 695.871 273.699 697.581 273.699C699.215 273.699 700.431 273.11 701.229 271.932C702.065 270.754 702.483 268.835 702.483 266.175C702.483 264.161 702.084 262.128 701.286 260.076C700.526 258.024 699.31 256.295 697.638 254.889C695.852 256.675 694.579 258.594 693.819 260.646C693.059 262.66 692.679 264.56 692.679 266.346ZM632.088 264.921C630.492 264.921 628.915 265.453 627.357 266.517C627.471 269.291 628.003 271.229 628.953 272.331C629.941 273.433 631.119 273.984 632.487 273.984C634.957 273.984 636.192 272.483 636.192 269.481C636.192 268.037 635.85 266.916 635.166 266.118C634.52 265.32 633.494 264.921 632.088 264.921Z" fill="#FABC02"/>
<rect x="219" y="463" width="470" height="82" rx="7" stroke="#DFDFDF" stroke-width="6"/>
<path d="M293.696 506.633C294.874 507.353 296.413 506.982 297.133 505.804L308.867 486.606C309.587 485.428 309.216 483.889 308.038 483.169C306.86 482.449 305.321 482.82 304.601 483.998L294.171 501.063L277.106 490.633C275.928 489.913 274.389 490.284 273.669 491.462C272.949 492.64 273.32 494.179 274.498 494.899L293.696 506.633ZM240.57 289.586L292.57 505.086L297.43 503.914L245.43 288.414L240.57 289.586Z" fill="#DFDFDF"/>
<path d="M594.304 506.633C593.126 507.353 591.587 506.982 590.867 505.804L579.133 486.606C578.413 485.428 578.784 483.889 579.962 483.169C581.14 482.449 582.679 482.82 583.399 483.998L593.829 501.063L610.894 490.633C612.072 489.913 613.611 490.284 614.331 491.462C615.051 492.64 614.68 494.179 613.502 494.899L594.304 506.633ZM647.43 289.586L595.43 505.086L590.57 503.914L642.57 288.414L647.43 289.586Z" fill="#DFDFDF"/>
<path d="M447.232 495.768C448.209 496.744 449.791 496.744 450.768 495.768L466.678 479.858C467.654 478.882 467.654 477.299 466.678 476.322C465.701 475.346 464.118 475.346 463.142 476.322L449 490.464L434.858 476.322C433.882 475.346 432.299 475.346 431.322 476.322C430.346 477.299 430.346 478.882 431.322 479.858L447.232 495.768ZM446.5 226V494H451.5V226H446.5Z" fill="#DFDFDF"/>
</svg>
