<svg width="640px" height="318px" viewBox="0 0 640 318" version="1.1" xmlns="http://www.w3.org/2000/svg" xmlns:xlink="http://www.w3.org/1999/xlink">
    <g id="Page-1" stroke="none" stroke-width="1" fill="none" fill-rule="evenodd">
        <g id="Group-5-Copy-3" transform="translate(-1073.000000, -87.000000)" fill="#6B473C">
            <path d="M1684.375,236.25 C1688.95836,236.708336 1692.38541,238.135405 1694.65625,240.53125 C1696.92709,242.927095 1698.0625,246.374977 1698.0625,250.875 L1698.0625,267.3125 C1698.0625,272.312525 1699.02082,275.906239 1700.9375,278.09375 C1702.85418,280.281261 1706.02081,281.375 1710.4375,281.375 L1712.9375,281.375 L1712.9375,290.1875 L1709.5,290.1875 C1702.12496,290.1875 1696.66668,288.427101 1693.125,284.90625 C1689.58332,281.385399 1687.8125,275.979203 1687.8125,268.6875 L1687.8125,254.75 C1687.8125,249.749975 1686.81251,246.28126 1684.8125,244.34375 C1682.81249,242.40624 1679.27086,241.4375 1674.1875,241.4375 L1674.1875,229.5625 C1679.27086,229.5625 1682.81249,228.59376 1684.8125,226.65625 C1686.81251,224.71874 1687.8125,221.250025 1687.8125,216.25 L1687.8125,202.3125 C1687.8125,195.020797 1689.58332,189.614601 1693.125,186.09375 C1696.66668,182.572899 1702.12496,180.8125 1709.5,180.8125 L1712.9375,180.8125 L1712.9375,189.625 L1710.4375,189.625 C1706.02081,189.625 1702.85418,190.718739 1700.9375,192.90625 C1699.02082,195.093761 1698.0625,198.687475 1698.0625,203.6875 L1698.0625,220.125 C1698.0625,228.958377 1693.50005,233.833329 1684.375,234.75 L1684.375,236.25 Z" id="{" transform="translate(1693.562500, 235.500000) scale(-1, 1) translate(-1693.562500, -235.500000) "></path>
            <path d="M1083.375,236.25 C1087.95836,236.708336 1091.38541,238.135405 1093.65625,240.53125 C1095.92709,242.927095 1097.0625,246.374977 1097.0625,250.875 L1097.0625,267.3125 C1097.0625,272.312525 1098.02082,275.906239 1099.9375,278.09375 C1101.85418,280.281261 1105.02081,281.375 1109.4375,281.375 L1111.9375,281.375 L1111.9375,290.1875 L1108.5,290.1875 C1101.12496,290.1875 1095.66668,288.427101 1092.125,284.90625 C1088.58332,281.385399 1086.8125,275.979203 1086.8125,268.6875 L1086.8125,254.75 C1086.8125,249.749975 1085.81251,246.28126 1083.8125,244.34375 C1081.81249,242.40624 1078.27086,241.4375 1073.1875,241.4375 L1073.1875,229.5625 C1078.27086,229.5625 1081.81249,228.59376 1083.8125,226.65625 C1085.81251,224.71874 1086.8125,221.250025 1086.8125,216.25 L1086.8125,202.3125 C1086.8125,195.020797 1088.58332,189.614601 1092.125,186.09375 C1095.66668,182.572899 1101.12496,180.8125 1108.5,180.8125 L1111.9375,180.8125 L1111.9375,189.625 L1109.4375,189.625 C1105.02081,189.625 1101.85418,190.718739 1099.9375,192.90625 C1098.02082,195.093761 1097.0625,198.687475 1097.0625,203.6875 L1097.0625,220.125 C1097.0625,228.958377 1092.50005,233.833329 1083.375,234.75 L1083.375,236.25 Z" id="{"></path>
        </g>
        <g id="Group-10" transform="translate(40.000000, -19.000000)">
            <g id="Group-9">
                <g id="Group-8" transform="translate(398.806467, 148.089020) rotate(16.000000) translate(-398.806467, -148.089020) translate(279.306467, 28.589020)">
                    <circle id="Oval-5" fill="#542A1E" cx="119.661498" cy="119.361083" r="119"></circle>
                    <path d="M24.8110625,107.386242 C34.8985242,152.291502 75.0133483,185.83998 122.963839,185.83998 C170.91433,185.83998 211.029154,152.291502 221.116616,107.386242 C222.717175,114.511277 223.561778,121.922226 223.561778,129.530442 C223.561778,185.08915 178.522546,230.128381 122.963839,230.128381 C67.405132,230.128381 22.3659009,185.08915 22.3659009,129.530442 C22.3659009,121.922226 23.2105034,114.511277 24.8110625,107.386242 Z" id="Combined-Shape" fill="#4E281C" opacity="0.200000003"></path>
                    <circle id="Oval-6" fill="#6B473C" cx="92.7181021" cy="57.2415864" r="18.7106918"></circle>
                    <circle id="Oval-6-Copy-2" fill="#6B473C" cx="153.340744" cy="57.2415864" r="18.7106918"></circle>
                    <circle id="Oval-6-Copy" fill="#6B473C" cx="123.403637" cy="27.3044795" r="11.2264151"></circle>
                    <circle id="Oval-7" fill="#441509" opacity="0.5" cx="47.0640141" cy="156.782467" r="1.49685535"></circle>
                    <circle id="Oval-7-Copy" fill="#441509" opacity="0.5" cx="19.746404" cy="127.968002" r="4.86477987"></circle>
                    <circle id="Oval-7-Copy-3" fill="#441509" opacity="0.5" cx="218.828165" cy="127.968002" r="4.86477987"></circle>
                    <circle id="Oval-7-Copy-2" fill="#441509" opacity="0.5" cx="16.0042656" cy="142.936555" r="1.12264151"></circle>
                    <circle id="Oval-7" fill="#441509" opacity="0.5" cx="26.8564669" cy="149.29819" r="3.74213836"></circle>
                    <circle id="Oval-7" fill="#441509" opacity="0.5" cx="33.5923159" cy="171.002593" r="2.99371069"></circle>
                </g>
                <g id="Group-8" transform="translate(148.753488, 148.188679) scale(-1, 1) rotate(16.000000) translate(-148.753488, -148.188679) translate(29.253488, 28.688679)">
                    <circle id="Oval-5" fill="#654036" cx="119.21103" cy="119.386578" r="119"></circle>
                    <path d="M24.3605946,107.411736 C34.4480564,152.316997 74.5628805,185.865474 122.513371,185.865474 C170.463862,185.865474 210.578686,152.316997 220.666148,107.411736 C222.266707,114.536771 223.11131,121.94772 223.11131,129.555937 C223.11131,185.114644 178.072079,230.153875 122.513371,230.153875 C66.9546642,230.153875 21.915433,185.114644 21.915433,129.555937 C21.915433,121.94772 22.7600356,114.536771 24.3605946,107.411736 Z" id="Combined-Shape" fill="#4E281C" opacity="0.200000003"></path>
                    <circle id="Oval-6" fill="#A37C5A" cx="92.2676343" cy="57.2670807" r="18.7106918"></circle>
                    <circle id="Oval-6-Copy-2" fill="#A37C5A" cx="152.890276" cy="57.2670807" r="18.7106918"></circle>
                    <circle id="Oval-6-Copy" fill="#A37C5A" cx="122.953169" cy="27.3299737" r="11.2264151"></circle>
                    <circle id="Oval-7" fill="#441509" opacity="0.5" cx="46.6135462" cy="156.807961" r="1.49685535"></circle>
                    <circle id="Oval-7-Copy" fill="#441509" opacity="0.5" cx="19.2959362" cy="127.993496" r="4.86477987"></circle>
                    <circle id="Oval-7-Copy-3" fill="#441509" opacity="0.5" cx="218.377697" cy="127.993496" r="4.86477987"></circle>
                    <circle id="Oval-7-Copy-2" fill="#441509" opacity="0.5" cx="15.5537978" cy="142.962049" r="1.12264151"></circle>
                    <circle id="Oval-7" fill="#441509" opacity="0.5" cx="26.4059991" cy="149.323684" r="3.74213836"></circle>
                    <circle id="Oval-7" fill="#441509" opacity="0.5" cx="33.1418481" cy="171.028087" r="2.99371069"></circle>
                </g>
            </g>
            <g id="Group-8" transform="translate(120.000000, 19.000000)">
                <circle id="Oval-5" fill="#6B473C" cx="159" cy="159" r="159"></circle>
                <path d="M32.2670642,143 C45.7452687,202.999466 99.3440677,247.824745 163.412371,247.824745 C227.480675,247.824745 281.079474,202.999466 294.557679,143 C296.69624,152.520007 297.824743,162.422031 297.824743,172.587631 C297.824743,246.821534 237.646274,307.000002 163.412371,307.000002 C89.1784685,307.000002 29,246.821534 29,172.587631 C29,162.422031 30.1285026,152.520007 32.2670647,143.000002 Z" id="Combined-Shape" fill="#4E281C" opacity="0.200000003"></path>
                <circle id="Oval-6" fill="#A37C5A" cx="123" cy="76" r="25"></circle>
                <circle id="Oval-6-Copy-2" fill="#A37C5A" cx="204" cy="76" r="25"></circle>
                <circle id="Oval-6-Copy" fill="#A37C5A" cx="164" cy="36" r="15"></circle>
                <circle id="Oval-7" fill="#441509" opacity="0.5" cx="62" cy="209" r="2"></circle>
                <circle id="Oval-7-Copy" fill="#441509" opacity="0.5" cx="25.5" cy="170.5" r="6.5"></circle>
                <circle id="Oval-7-Copy-3" fill="#441509" opacity="0.5" cx="291.5" cy="170.5" r="6.5"></circle>
                <circle id="Oval-7-Copy-2" fill="#441509" opacity="0.5" cx="20.5" cy="190.5" r="1.5"></circle>
                <circle id="Oval-7" fill="#441509" opacity="0.5" cx="35" cy="199" r="5"></circle>
                <circle id="Oval-7" fill="#441509" opacity="0.5" cx="44" cy="228" r="4"></circle>
            </g>
        </g>
    </g>
</svg>
