<svg width="222" height="223" viewBox="0 0 222 223" fill="none" xmlns="http://www.w3.org/2000/svg">
<path d="M111.011 0C80.8647 0 77.0814 0.131817 65.2412 0.670637C53.4242 1.21177 45.358 3.08261 38.3002 5.82759C30.9995 8.66275 24.8066 12.4553 18.6367 18.6275C12.4622 24.7973 8.66969 30.9903 5.82527 38.2886C3.07336 45.3488 1.2002 53.4172 0.668321 65.2297C0.138751 77.0698 0 80.8554 0 111.002C0 141.148 0.134129 144.92 0.670637 156.76C1.21408 168.577 3.08492 176.643 5.82759 183.701C8.66507 191.001 12.4576 197.194 18.6298 203.364C24.7973 209.539 30.9903 213.341 38.2863 216.176C45.3488 218.921 53.4172 220.792 65.232 221.333C77.0721 221.871 80.8531 222.003 110.997 222.003C141.146 222.003 144.917 221.871 156.757 221.333C168.575 220.792 176.65 218.921 183.712 216.176C191.011 213.341 197.194 209.539 203.362 203.364C209.536 197.194 213.329 191.001 216.173 183.703C218.902 176.643 220.775 168.575 221.33 156.762C221.862 144.922 222.001 141.148 222.001 111.002C222.001 80.8554 221.862 77.0721 221.33 65.232C220.775 53.4149 218.902 45.3488 216.173 38.2909C213.329 30.9903 209.536 24.7973 203.362 18.6275C197.187 12.453 191.013 8.66044 183.705 5.82759C176.629 3.08261 168.558 1.21177 156.741 0.670637C144.901 0.131817 141.132 0 110.976 0H111.011ZM101.053 20.0034C104.009 19.9988 107.306 20.0034 111.011 20.0034C140.648 20.0034 144.161 20.1098 155.865 20.6417C166.687 21.1366 172.561 22.945 176.474 24.4643C181.654 26.4762 185.347 28.8812 189.23 32.7663C193.115 36.6514 195.52 40.3514 197.537 45.5315C199.056 49.4397 200.867 55.3135 201.359 66.1362C201.891 77.8376 202.007 81.3526 202.007 110.976C202.007 140.6 201.891 144.115 201.359 155.816C200.864 166.639 199.056 172.513 197.537 176.421C195.525 181.601 193.115 185.29 189.23 189.172C185.345 193.057 181.657 195.462 176.474 197.474C172.566 199.001 166.687 200.804 155.865 201.299C144.163 201.831 140.648 201.947 111.011 201.947C81.3711 201.947 77.8584 201.831 66.157 201.299C55.3343 200.8 49.4605 198.991 45.5454 197.472C40.3653 195.46 36.6652 193.055 32.7802 189.17C28.8951 185.285 26.4901 181.594 24.4736 176.412C22.9542 172.504 21.1435 166.63 20.6509 155.807C20.119 144.106 20.0127 140.591 20.0127 110.948C20.0127 81.3064 20.119 77.8098 20.6509 66.1084C21.1458 55.2858 22.9542 49.4119 24.4736 45.4991C26.4855 40.319 28.8951 36.619 32.7802 32.7339C36.6652 28.8489 40.3653 26.4438 45.5454 24.4273C49.4582 22.901 55.3343 21.0973 66.157 20.6001C76.3969 20.1376 80.3652 19.9988 101.053 19.9757V20.0034ZM170.263 38.4343C162.909 38.4343 156.942 44.3937 156.942 51.7499C156.942 59.1037 162.909 65.0701 170.263 65.0701C177.617 65.0701 183.583 59.1037 183.583 51.7499C183.583 44.396 177.617 38.4297 170.263 38.4297V38.4343ZM111.011 53.9977C79.5304 53.9977 54.0069 79.5211 54.0069 111.002C54.0069 142.482 79.5304 167.994 111.011 167.994C142.491 167.994 168.006 142.482 168.006 111.002C168.006 79.5211 142.489 53.9977 111.009 53.9977H111.011ZM111.011 74.0011C131.444 74.0011 148.011 90.5658 148.011 111.002C148.011 131.435 131.444 148.002 111.011 148.002C90.575 148.002 74.0104 131.435 74.0104 111.002C74.0104 90.5658 90.575 74.0011 111.011 74.0011V74.0011Z" fill="#303030"/>
</svg>
