<svg width="55" height="55" viewBox="0 0 55 55" fill="none" xmlns="http://www.w3.org/2000/svg">
<path d="M31.7432 51.3072C30.516 52.5343 28.4178 51.6652 28.4178 49.9298L28.4178 31.4866C28.4178 30.4107 29.2899 29.5386 30.3657 29.5386L48.8089 29.5386C50.5444 29.5386 51.4135 31.6368 50.1863 32.864L31.7432 51.3072Z" fill="#303030"/>
<path d="M54.2608 36.7057L54.2608 50.181C54.2608 51.8795 52.2386 52.7644 50.991 51.6118L43.9866 45.1409C43.1742 44.3903 43.149 43.1148 43.9311 42.3327L50.9355 35.3283C52.1626 34.1011 54.2608 34.9702 54.2608 36.7057Z" fill="#303030"/>
<path d="M3.51161 49.497C2.24159 50.7108 3.10073 52.8532 4.85751 52.8532L24.308 52.8532C25.3838 52.8532 26.2559 51.9811 26.2559 50.9053L26.2559 32.3156C26.2559 30.6013 24.2013 29.7229 22.9621 30.9074L3.51161 49.497Z" fill="#303030"/>
<path d="M18.82 27.0067L4.59217 27.0067C2.87262 27.0067 1.99647 29.0722 3.19157 30.3085L10.0239 37.3768C10.7686 38.1473 11.9957 38.1716 12.7704 37.4312L20.1659 30.3629C21.436 29.1491 20.5768 27.0067 18.82 27.0067Z" fill="#303030"/>
<path d="M22.9287 3.32539C24.1559 2.09824 26.2541 2.96736 26.2541 4.70281L26.2541 23.146C26.2541 24.2218 25.382 25.094 24.3061 25.094L5.86295 25.094C4.1275 25.094 3.25838 22.9957 4.48553 21.7686L22.9287 3.32539Z" fill="#303030"/>
<path d="M0.405177 17.9269L0.40518 4.4516C0.40518 2.75307 2.42738 1.86818 3.67499 3.02077L10.6794 9.49167C11.4918 10.2422 11.517 11.5178 10.7349 12.2999L3.73056 19.3043C2.50341 20.5314 0.405176 19.6623 0.405177 17.9269Z" fill="#303030"/>
<path d="M50.1824 5.10717C51.4096 3.88002 50.5405 1.78178 48.805 1.78178L30.3618 1.78179C29.286 1.78179 28.4139 2.65392 28.4139 3.72975L28.4139 22.1729C28.4139 23.9084 30.5121 24.7775 31.7392 23.5504L50.1824 5.10717Z" fill="#303030"/>
<path d="M35.5809 27.6258L49.0562 27.6258C50.7547 27.6258 51.6396 25.6036 50.487 24.356L44.0161 17.3516C43.2656 16.5392 41.99 16.514 41.2079 17.2961L34.2035 24.3004C32.9764 25.5276 33.8455 27.6258 35.5809 27.6258Z" fill="#303030"/>
</svg>
